<svg version="1.1" xmlns="http://www.w3.org/2000/svg" xmlns:xlink="http://www.w3.org/1999/xlink" width="948" height="947"><defs/><g><g transform="translate(-246,-278) scale(1,1)"><path fill="none" stroke="#000000" d="M 256 288 L 1184 288 L 1184 1215 L 256 1215 L 256 288" stroke-miterlimit="10"/></g><g transform="translate(-246,-278) scale(1,1)"><path fill="#ffffff" stroke="none" d="M 256 288 L 256 310 L 356.55712890625 310 L 367.55712890625 299 L 367.55712890625 288 L 256 288"/></g><g transform="translate(-246,-278) scale(1,1)"><path fill="none" stroke="#000000" d="M 256 288 L 256 310 L 356.55712890625 310 L 367.55712890625 299 L 367.55712890625 288 L 256 288 L 256 288" stroke-miterlimit="10"/></g><g transform="translate(-246,-278) scale(1,1)"><g><path fill="none" stroke="none"/><text fill="#000000" stroke="none" font-family="Arial" font-size="13px" font-style="normal" font-weight="normal" text-decoration="none" x="316.14990234375" y="305.5">Model</text></g></g><g transform="translate(-246,-278) scale(1,1)"><g><path fill="none" stroke="none"/><text fill="#000000" stroke="none" font-family="Arial" font-size="13px" font-style="normal" font-weight="bold" text-decoration="none" x="261" y="305.5">package</text></g></g><g transform="translate(-246,-278) scale(1,1)"><rect fill="#C0C0C0" stroke="none" x="329" y="1014" width="320" height="15" opacity="0.2"/></g><g transform="translate(-246,-278) scale(1,1)"><rect fill="#C0C0C0" stroke="none" x="329" y="1028" width="800" height="154" opacity="0.2"/></g><g transform="translate(-246,-278) scale(1,1)"><rect fill="#ffffff" stroke="none" x="322" y="1022" width="800" height="153"/></g><g transform="translate(-246,-278) scale(1,1)"><path fill="none" stroke="#000000" d="M 322 1022 L 1122 1022 L 1122 1175 L 322 1175 L 322 1022 Z Z" stroke-miterlimit="10"/></g><g transform="translate(-246,-278) scale(1,1)"><rect fill="#ffffff" stroke="none" x="322" y="1007" width="320" height="15"/></g><g transform="translate(-246,-278) scale(1,1)"><path fill="none" stroke="#000000" d="M 322 1007 L 642 1007 L 642 1022 L 322 1022 L 322 1007 Z Z" stroke-miterlimit="10"/></g><g transform="translate(-246,-278) scale(1,1)"><rect fill="#ffffff" stroke="none" x="322" y="1021" width="800" height="154"/></g><g transform="translate(-246,-278) scale(1,1)"><path fill="none" stroke="#000000" d="M 322 1021 L 1122 1021 L 1122 1175 L 322 1175 L 322 1021 Z Z" stroke-miterlimit="10"/></g><g transform="translate(-246,-278) scale(1,1)"><path fill="none" stroke="#000000" d="M 634 1010 L 634 1014" stroke-miterlimit="10"/></g><g transform="translate(-246,-278) scale(1,1)"><path fill="none" stroke="#000000" d="M 631 1018 L 631 1014 L 637 1014" stroke-miterlimit="10"/></g><g transform="translate(-246,-278) scale(1,1)"><path fill="none" stroke="#000000" d="M 637 1018 L 637 1014 L 631 1014" stroke-miterlimit="10"/></g><g transform="translate(-246,-278) scale(1,1)"><g><path fill="none" stroke="none"/><text fill="#000000" stroke="none" font-family="Arial" font-size="13px" font-style="normal" font-weight="bold" text-decoration="none" x="713.325927734375" y="1041.5">hal</text></g></g><g transform="translate(-246,-278) scale(1,1)"><rect fill="#C0C0C0" stroke="none" x="327" y="774" width="320" height="15" opacity="0.2"/></g><g transform="translate(-246,-278) scale(1,1)"><rect fill="#C0C0C0" stroke="none" x="327" y="788" width="800" height="194" opacity="0.2"/></g><g transform="translate(-246,-278) scale(1,1)"><rect fill="#ffffff" stroke="none" x="320" y="782" width="800" height="193"/></g><g transform="translate(-246,-278) scale(1,1)"><path fill="none" stroke="#000000" d="M 320 782 L 1120 782 L 1120 975 L 320 975 L 320 782 Z Z" stroke-miterlimit="10"/></g><g transform="translate(-246,-278) scale(1,1)"><rect fill="#ffffff" stroke="none" x="320" y="767" width="320" height="15"/></g><g transform="translate(-246,-278) scale(1,1)"><path fill="none" stroke="#000000" d="M 320 767 L 640 767 L 640 782 L 320 782 L 320 767 Z Z" stroke-miterlimit="10"/></g><g transform="translate(-246,-278) scale(1,1)"><rect fill="#ffffff" stroke="none" x="320" y="781" width="800" height="194"/></g><g transform="translate(-246,-278) scale(1,1)"><path fill="none" stroke="#000000" d="M 320 781 L 1120 781 L 1120 975 L 320 975 L 320 781 Z Z" stroke-miterlimit="10"/></g><g transform="translate(-246,-278) scale(1,1)"><path fill="none" stroke="#000000" d="M 632 770 L 632 774" stroke-miterlimit="10"/></g><g transform="translate(-246,-278) scale(1,1)"><path fill="none" stroke="#000000" d="M 629 778 L 629 774 L 635 774" stroke-miterlimit="10"/></g><g transform="translate(-246,-278) scale(1,1)"><path fill="none" stroke="#000000" d="M 635 778 L 635 774 L 629 774" stroke-miterlimit="10"/></g><g transform="translate(-246,-278) scale(1,1)"><g><path fill="none" stroke="none"/><text fill="#000000" stroke="none" font-family="Arial" font-size="13px" font-style="normal" font-weight="bold" text-decoration="none" x="663.274169921875" y="801.5">GateKeeperService</text></g></g><g transform="translate(-246,-278) scale(1,1)"><rect fill="#C0C0C0" stroke="none" x="329" y="558" width="320" height="15" opacity="0.2"/></g><g transform="translate(-246,-278) scale(1,1)"><rect fill="#C0C0C0" stroke="none" x="329" y="572" width="800" height="170" opacity="0.2"/></g><g transform="translate(-246,-278) scale(1,1)"><rect fill="#ffffff" stroke="none" x="322" y="566" width="800" height="169"/></g><g transform="translate(-246,-278) scale(1,1)"><path fill="none" stroke="#000000" d="M 322 566 L 1122 566 L 1122 735 L 322 735 L 322 566 Z Z" stroke-miterlimit="10"/></g><g transform="translate(-246,-278) scale(1,1)"><rect fill="#ffffff" stroke="none" x="322" y="551" width="320" height="15"/></g><g transform="translate(-246,-278) scale(1,1)"><path fill="none" stroke="#000000" d="M 322 551 L 642 551 L 642 566 L 322 566 L 322 551 Z Z" stroke-miterlimit="10"/></g><g transform="translate(-246,-278) scale(1,1)"><rect fill="#ffffff" stroke="none" x="322" y="565" width="800" height="170"/></g><g transform="translate(-246,-278) scale(1,1)"><path fill="none" stroke="#000000" d="M 322 565 L 1122 565 L 1122 735 L 322 735 L 322 565 Z Z" stroke-miterlimit="10"/></g><g transform="translate(-246,-278) scale(1,1)"><path fill="none" stroke="#000000" d="M 634 554 L 634 558" stroke-miterlimit="10"/></g><g transform="translate(-246,-278) scale(1,1)"><path fill="none" stroke="#000000" d="M 631 562 L 631 558 L 637 558" stroke-miterlimit="10"/></g><g transform="translate(-246,-278) scale(1,1)"><path fill="none" stroke="#000000" d="M 637 562 L 637 558 L 631 558" stroke-miterlimit="10"/></g><g transform="translate(-246,-278) scale(1,1)"><g><path fill="none" stroke="none"/><text fill="#000000" stroke="none" font-family="Arial" font-size="13px" font-style="normal" font-weight="bold" text-decoration="none" x="663.109619140625" y="585.5">LockSettingsService</text></g></g><g transform="translate(-246,-278) scale(1,1)"><rect fill="#C0C0C0" stroke="none" x="496" y="1065" width="131.8017578125" height="72" opacity="0.2"/></g><g transform="translate(-246,-278) scale(1,1)"><rect fill="#ffffff" stroke="none" x="489" y="1058" width="131.8017578125" height="72"/></g><g transform="translate(-246,-278) scale(1,1)"><path fill="none" stroke="#000000" d="M 489 1058 L 620.8017578125 1058 L 620.8017578125 1130 L 489 1130 L 489 1058 Z Z" stroke-miterlimit="10"/></g><g transform="translate(-246,-278) scale(1,1)"><path fill="none" stroke="#000000" d="M 489 1083 L 620.8017578125 1083" stroke-miterlimit="10"/></g><g transform="translate(-246,-278) scale(1,1)"><path fill="none" stroke="#000000" d="M 489 1093 L 620.8017578125 1093" stroke-miterlimit="10"/></g><g transform="translate(-246,-278) scale(1,1)"><g><path fill="none" stroke="none"/><text fill="#000000" stroke="none" font-family="Arial" font-size="13px" font-style="normal" font-weight="bold" text-decoration="none" x="497.806884765625" y="1077.5">HalAdaptationLayer</text></g></g><g transform="translate(-246,-278) scale(1,1)"><g><path fill="none" stroke="none"/><text fill="#000000" stroke="none" font-family="Arial" font-size="13px" font-style="normal" font-weight="normal" text-decoration="none" x="494" y="1110.5">+enroll()</text></g></g><g transform="translate(-246,-278) scale(1,1)"><g><path fill="none" stroke="none"/><text fill="#000000" stroke="none" font-family="Arial" font-size="13px" font-style="normal" font-weight="normal" text-decoration="none" x="494" y="1125.5">+verify()</text></g></g><g transform="translate(-246,-278) scale(1,1)"><rect fill="#C0C0C0" stroke="none" x="830" y="1065" width="131.8017578125" height="72" opacity="0.2"/></g><g transform="translate(-246,-278) scale(1,1)"><rect fill="#ffffff" stroke="none" x="823" y="1058" width="131.8017578125" height="72"/></g><g transform="translate(-246,-278) scale(1,1)"><path fill="none" stroke="#000000" d="M 823 1058 L 954.8017578125 1058 L 954.8017578125 1130 L 823 1130 L 823 1058 Z Z" stroke-miterlimit="10"/></g><g transform="translate(-246,-278) scale(1,1)"><path fill="none" stroke="#000000" d="M 823 1083 L 954.8017578125 1083" stroke-miterlimit="10"/></g><g transform="translate(-246,-278) scale(1,1)"><path fill="none" stroke="#000000" d="M 823 1093 L 954.8017578125 1093" stroke-miterlimit="10"/></g><g transform="translate(-246,-278) scale(1,1)"><g><path fill="none" stroke="none"/><text fill="#000000" stroke="none" font-family="Arial" font-size="13px" font-style="normal" font-weight="bold" text-decoration="none" x="853.84912109375" y="1077.5">GateKeeper</text></g></g><g transform="translate(-246,-278) scale(1,1)"><g><path fill="none" stroke="none"/><text fill="#000000" stroke="none" font-family="Arial" font-size="13px" font-style="normal" font-weight="normal" text-decoration="none" x="828" y="1110.5">+Enroll()</text></g></g><g transform="translate(-246,-278) scale(1,1)"><g><path fill="none" stroke="none"/><text fill="#000000" stroke="none" font-family="Arial" font-size="13px" font-style="normal" font-weight="normal" text-decoration="none" x="828" y="1125.5">+Verify()</text></g></g><g transform="translate(-246,-278) scale(1,1)"><path fill="none" stroke="#000000" d="M 622 1094 L 822 1094" stroke-miterlimit="10"/></g><g transform="translate(-246,-278) scale(1,1)"><path fill="#FFFFFF" stroke="none" d="M 811.8373251423759 1098.2095177560159 L 822 1094 L 811.8373251423758 1089.7904822439841 L 800 1094"/></g><g transform="translate(-246,-278) scale(1,1)"><path fill="none" stroke="#000000" d="M 811.8373251423759 1098.2095177560159 L 822 1094 L 811.8373251423758 1089.7904822439841 L 800 1094 L 811.8373251423759 1098.2095177560159" stroke-miterlimit="10"/></g><g transform="translate(-246,-278) scale(1,1)"><rect fill="#C0C0C0" stroke="none" x="383" y="814" width="188.55615234375" height="132" opacity="0.2"/></g><g transform="translate(-246,-278) scale(1,1)"><rect fill="#ffffff" stroke="none" x="376" y="807" width="188.55615234375" height="132"/></g><g transform="translate(-246,-278) scale(1,1)"><path fill="none" stroke="#000000" d="M 376 807 L 564.55615234375 807 L 564.55615234375 939 L 376 939 L 376 807 Z Z" stroke-miterlimit="10"/></g><g transform="translate(-246,-278) scale(1,1)"><path fill="none" stroke="#000000" d="M 376 832 L 564.55615234375 832" stroke-miterlimit="10"/></g><g transform="translate(-246,-278) scale(1,1)"><path fill="none" stroke="#000000" d="M 376 842 L 564.55615234375 842" stroke-miterlimit="10"/></g><g transform="translate(-246,-278) scale(1,1)"><g><path fill="none" stroke="none"/><text fill="#000000" stroke="none" font-family="Arial" font-size="13px" font-style="normal" font-weight="bold" text-decoration="none" x="418.611328125" y="826.5">GateKeeperProxy</text></g></g><g transform="translate(-246,-278) scale(1,1)"><g><path fill="none" stroke="none"/><text fill="#000000" stroke="none" font-family="Arial" font-size="13px" font-style="normal" font-weight="normal" text-decoration="none" x="381" y="859.5">+enroll()</text></g></g><g transform="translate(-246,-278) scale(1,1)"><g><path fill="none" stroke="none"/><text fill="#000000" stroke="none" font-family="Arial" font-size="13px" font-style="normal" font-weight="normal" text-decoration="none" x="381" y="874.5">+verify()</text></g></g><g transform="translate(-246,-278) scale(1,1)"><g><path fill="none" stroke="none"/><text fill="#000000" stroke="none" font-family="Arial" font-size="13px" font-style="normal" font-weight="normal" text-decoration="none" x="381" y="889.5">+verifyChallenge()</text></g></g><g transform="translate(-246,-278) scale(1,1)"><g><path fill="none" stroke="none"/><text fill="#000000" stroke="none" font-family="Arial" font-size="13px" font-style="normal" font-weight="normal" text-decoration="none" x="381" y="904.5">+getSecureUserId()</text></g></g><g transform="translate(-246,-278) scale(1,1)"><g><path fill="none" stroke="none"/><text fill="#000000" stroke="none" font-family="Arial" font-size="13px" font-style="normal" font-weight="normal" text-decoration="none" x="381" y="919.5">+clearSecureUserId()</text></g></g><g transform="translate(-246,-278) scale(1,1)"><g><path fill="none" stroke="none"/><text fill="#000000" stroke="none" font-family="Arial" font-size="13px" font-style="normal" font-weight="normal" text-decoration="none" x="381" y="934.5">+reportDeviceSetupComplete()</text></g></g><g transform="translate(-246,-278) scale(1,1)"><rect fill="#C0C0C0" stroke="none" x="655" y="852" width="145.56982421875" height="57" opacity="0.2"/></g><g transform="translate(-246,-278) scale(1,1)"><rect fill="#ffffff" stroke="none" x="648" y="845" width="145.56982421875" height="57"/></g><g transform="translate(-246,-278) scale(1,1)"><path fill="none" stroke="#000000" d="M 648 845 L 793.56982421875 845 L 793.56982421875 902 L 648 902 L 648 845 Z Z" stroke-miterlimit="10"/></g><g transform="translate(-246,-278) scale(1,1)"><path fill="none" stroke="#000000" d="M 648 870 L 793.56982421875 870" stroke-miterlimit="10"/></g><g transform="translate(-246,-278) scale(1,1)"><path fill="none" stroke="#000000" d="M 648 880 L 793.56982421875 880" stroke-miterlimit="10"/></g><g transform="translate(-246,-278) scale(1,1)"><g><path fill="none" stroke="none"/><text fill="#000000" stroke="none" font-family="Arial" font-size="13px" font-style="normal" font-weight="bold" text-decoration="none" x="656.108642578125" y="864.5">BnGateKeeperService</text></g></g><g transform="translate(-246,-278) scale(1,1)"><g><path fill="none" stroke="none"/><text fill="#000000" stroke="none" font-family="Arial" font-size="13px" font-style="normal" font-weight="normal" text-decoration="none" x="653" y="897.5">+onTransact()</text></g></g><g transform="translate(-246,-278) scale(1,1)"><rect fill="#C0C0C0" stroke="none" x="879" y="814" width="188.55615234375" height="132" opacity="0.2"/></g><g transform="translate(-246,-278) scale(1,1)"><rect fill="#ffffff" stroke="none" x="872" y="807" width="188.55615234375" height="132"/></g><g transform="translate(-246,-278) scale(1,1)"><path fill="none" stroke="#000000" d="M 872 807 L 1060.55615234375 807 L 1060.55615234375 939 L 872 939 L 872 807 Z Z" stroke-miterlimit="10"/></g><g transform="translate(-246,-278) scale(1,1)"><path fill="none" stroke="#000000" d="M 872 832 L 1060.55615234375 832" stroke-miterlimit="10"/></g><g transform="translate(-246,-278) scale(1,1)"><path fill="none" stroke="#000000" d="M 872 842 L 1060.55615234375 842" stroke-miterlimit="10"/></g><g transform="translate(-246,-278) scale(1,1)"><g><path fill="none" stroke="none"/><text fill="#000000" stroke="none" font-family="Arial" font-size="13px" font-style="italic" font-weight="bold" text-decoration="none" x="907.746337890625" y="826.5">IGateKeeperService</text></g></g><g transform="translate(-246,-278) scale(1,1)"><g><path fill="none" stroke="none"/><text fill="#000000" stroke="none" font-family="Arial" font-size="13px" font-style="italic" font-weight="normal" text-decoration="none" x="877" y="859.5">+enroll()</text></g></g><g transform="translate(-246,-278) scale(1,1)"><g><path fill="none" stroke="none"/><text fill="#000000" stroke="none" font-family="Arial" font-size="13px" font-style="italic" font-weight="normal" text-decoration="none" x="877" y="874.5">+verify()</text></g></g><g transform="translate(-246,-278) scale(1,1)"><g><path fill="none" stroke="none"/><text fill="#000000" stroke="none" font-family="Arial" font-size="13px" font-style="italic" font-weight="normal" text-decoration="none" x="877" y="889.5">+verifyChallenge()</text></g></g><g transform="translate(-246,-278) scale(1,1)"><g><path fill="none" stroke="none"/><text fill="#000000" stroke="none" font-family="Arial" font-size="13px" font-style="italic" font-weight="normal" text-decoration="none" x="877" y="904.5">+getSecureUserId()</text></g></g><g transform="translate(-246,-278) scale(1,1)"><g><path fill="none" stroke="none"/><text fill="#000000" stroke="none" font-family="Arial" font-size="13px" font-style="italic" font-weight="normal" text-decoration="none" x="877" y="919.5">+clearSecureUserId()</text></g></g><g transform="translate(-246,-278) scale(1,1)"><g><path fill="none" stroke="none"/><text fill="#000000" stroke="none" font-family="Arial" font-size="13px" font-style="italic" font-weight="normal" text-decoration="none" x="877" y="934.5">+reportDeviceSetupComplete()</text></g></g><g transform="translate(-246,-278) scale(1,1)"><path fill="none" stroke="#000000" d="M 566 873 L 647 873" stroke-miterlimit="10"/></g><g transform="translate(-246,-278) scale(1,1)"><path fill="#FFFFFF" stroke="none" d="M 626.6746502847517 881.419035512032 L 647 873 L 626.6746502847517 864.580964487968"/></g><g transform="translate(-246,-278) scale(1,1)"><path fill="none" stroke="#000000" d="M 626.6746502847517 881.419035512032 L 647 873 L 626.6746502847517 864.580964487968 L 626.6746502847517 881.419035512032" stroke-miterlimit="10"/></g><g transform="translate(-246,-278) scale(1,1)"><path fill="none" stroke="#000000" d="M 795 873 L 871 873" stroke-miterlimit="10"/></g><g transform="translate(-246,-278) scale(1,1)"><path fill="#FFFFFF" stroke="none" d="M 850.6746502847517 881.419035512032 L 871 873 L 850.6746502847517 864.580964487968"/></g><g transform="translate(-246,-278) scale(1,1)"><path fill="none" stroke="#000000" d="M 850.6746502847517 881.419035512032 L 871 873 L 850.6746502847517 864.580964487968 L 850.6746502847517 881.419035512032" stroke-miterlimit="10"/></g><g transform="translate(-246,-278) scale(1,1)"><rect fill="#C0C0C0" stroke="none" x="423" y="598" width="184.22705078125" height="102" opacity="0.2"/></g><g transform="translate(-246,-278) scale(1,1)"><rect fill="#ffffff" stroke="none" x="416" y="591" width="184.22705078125" height="102"/></g><g transform="translate(-246,-278) scale(1,1)"><path fill="none" stroke="#000000" d="M 416 591 L 600.22705078125 591 L 600.22705078125 693 L 416 693 L 416 591 Z Z" stroke-miterlimit="10"/></g><g transform="translate(-246,-278) scale(1,1)"><path fill="none" stroke="#000000" d="M 416 616 L 600.22705078125 616" stroke-miterlimit="10"/></g><g transform="translate(-246,-278) scale(1,1)"><path fill="none" stroke="#000000" d="M 416 626 L 600.22705078125 626" stroke-miterlimit="10"/></g><g transform="translate(-246,-278) scale(1,1)"><g><path fill="none" stroke="none"/><text fill="#000000" stroke="none" font-family="Arial" font-size="13px" font-style="normal" font-weight="bold" text-decoration="none" x="449.22314453125" y="610.5">LockSettingsService</text></g></g><g transform="translate(-246,-278) scale(1,1)"><g><path fill="none" stroke="none"/><text fill="#000000" stroke="none" font-family="Arial" font-size="13px" font-style="normal" font-weight="normal" text-decoration="none" x="421" y="643.5">+checkCredential()</text></g></g><g transform="translate(-246,-278) scale(1,1)"><g><path fill="none" stroke="none"/><text fill="#000000" stroke="none" font-family="Arial" font-size="13px" font-style="normal" font-weight="normal" text-decoration="none" x="421" y="658.5">+doVerifyCredential()</text></g></g><g transform="translate(-246,-278) scale(1,1)"><g><path fill="none" stroke="none"/><text fill="#000000" stroke="none" font-family="Arial" font-size="13px" font-style="normal" font-weight="normal" text-decoration="none" x="421" y="673.5">+spBasedDoVerifyCredential()</text></g></g><g transform="translate(-246,-278) scale(1,1)"><g><path fill="none" stroke="none"/><text fill="#000000" stroke="none" font-family="Arial" font-size="13px" font-style="normal" font-weight="normal" text-decoration="none" x="421" y="688.5">+getGateKeeperService()</text></g></g><g transform="translate(-246,-278) scale(1,1)"><rect fill="#C0C0C0" stroke="none" x="807" y="621" width="272.376953125" height="57" opacity="0.2"/></g><g transform="translate(-246,-278) scale(1,1)"><rect fill="#ffffff" stroke="none" x="800" y="614" width="272.376953125" height="57"/></g><g transform="translate(-246,-278) scale(1,1)"><path fill="none" stroke="#000000" d="M 800 614 L 1072.376953125 614 L 1072.376953125 671 L 800 671 L 800 614 Z Z" stroke-miterlimit="10"/></g><g transform="translate(-246,-278) scale(1,1)"><path fill="none" stroke="#000000" d="M 800 639 L 1072.376953125 639" stroke-miterlimit="10"/></g><g transform="translate(-246,-278) scale(1,1)"><path fill="none" stroke="#000000" d="M 800 649 L 1072.376953125 649" stroke-miterlimit="10"/></g><g transform="translate(-246,-278) scale(1,1)"><g><path fill="none" stroke="none"/><text fill="#000000" stroke="none" font-family="Arial" font-size="13px" font-style="normal" font-weight="bold" text-decoration="none" x="855.259033203125" y="633.5">SyntheticPasswordManager</text></g></g><g transform="translate(-246,-278) scale(1,1)"><g><path fill="none" stroke="none"/><text fill="#000000" stroke="none" font-family="Arial" font-size="13px" font-style="normal" font-weight="normal" text-decoration="none" x="805" y="666.5">+unwrapPasswordBasedSyntheticPassword()</text></g></g><g transform="translate(-246,-278) scale(1,1)"><path fill="none" stroke="#000000" d="M 601 642 L 799 642" stroke-miterlimit="10"/></g><g transform="translate(-246,-278) scale(1,1)"><path fill="#FFFFFF" stroke="none" d="M 788.8373251423759 646.209517756016 L 799 642 L 788.8373251423758 637.790482243984 L 777 642"/></g><g transform="translate(-246,-278) scale(1,1)"><path fill="none" stroke="#000000" d="M 788.8373251423759 646.209517756016 L 799 642 L 788.8373251423758 637.790482243984 L 777 642 L 788.8373251423759 646.209517756016" stroke-miterlimit="10"/></g><g transform="translate(-246,-278) scale(1,1)"><rect fill="#C0C0C0" stroke="none" x="327" y="350" width="320" height="15" opacity="0.2"/></g><g transform="translate(-246,-278) scale(1,1)"><rect fill="#C0C0C0" stroke="none" x="327" y="364" width="800" height="163" opacity="0.2"/></g><g transform="translate(-246,-278) scale(1,1)"><rect fill="#ffffff" stroke="none" x="320" y="358" width="800" height="162"/></g><g transform="translate(-246,-278) scale(1,1)"><path fill="none" stroke="#000000" d="M 320 358 L 1120 358 L 1120 520 L 320 520 L 320 358 Z Z" stroke-miterlimit="10"/></g><g transform="translate(-246,-278) scale(1,1)"><rect fill="#ffffff" stroke="none" x="320" y="343" width="320" height="15"/></g><g transform="translate(-246,-278) scale(1,1)"><path fill="none" stroke="#000000" d="M 320 343 L 640 343 L 640 358 L 320 358 L 320 343 Z Z" stroke-miterlimit="10"/></g><g transform="translate(-246,-278) scale(1,1)"><rect fill="#ffffff" stroke="none" x="320" y="357" width="800" height="163"/></g><g transform="translate(-246,-278) scale(1,1)"><path fill="none" stroke="#000000" d="M 320 357 L 1120 357 L 1120 520 L 320 520 L 320 357 Z Z" stroke-miterlimit="10"/></g><g transform="translate(-246,-278) scale(1,1)"><path fill="none" stroke="#000000" d="M 632 346 L 632 350" stroke-miterlimit="10"/></g><g transform="translate(-246,-278) scale(1,1)"><path fill="none" stroke="#000000" d="M 629 354 L 629 350 L 635 350" stroke-miterlimit="10"/></g><g transform="translate(-246,-278) scale(1,1)"><path fill="none" stroke="#000000" d="M 635 354 L 635 350 L 629 350" stroke-miterlimit="10"/></g><g transform="translate(-246,-278) scale(1,1)"><g><path fill="none" stroke="none"/><text fill="#000000" stroke="none" font-family="Arial" font-size="13px" font-style="normal" font-weight="bold" text-decoration="none" x="706.99365234375" y="377.5">APP</text></g></g><g transform="translate(-246,-278) scale(1,1)"><rect fill="#C0C0C0" stroke="none" x="463" y="398" width="118.46533203125" height="100" opacity="0.2"/></g><g transform="translate(-246,-278) scale(1,1)"><rect fill="#ffffff" stroke="none" x="456" y="391" width="118.46533203125" height="100"/></g><g transform="translate(-246,-278) scale(1,1)"><path fill="none" stroke="#000000" d="M 456 391 L 574.46533203125 391 L 574.46533203125 491 L 456 491 L 456 391 Z Z" stroke-miterlimit="10"/></g><g transform="translate(-246,-278) scale(1,1)"><path fill="none" stroke="#000000" d="M 456 416 L 574.46533203125 416" stroke-miterlimit="10"/></g><g transform="translate(-246,-278) scale(1,1)"><path fill="none" stroke="#000000" d="M 456 426 L 574.46533203125 426" stroke-miterlimit="10"/></g><g transform="translate(-246,-278) scale(1,1)"><g><path fill="none" stroke="none"/><text fill="#000000" stroke="none" font-family="Arial" font-size="13px" font-style="normal" font-weight="bold" text-decoration="none" x="467.90771484375" y="410.5">LockPatternUtils</text></g></g><g transform="translate(-246,-278) scale(1,1)"><g><path fill="none" stroke="none"/><text fill="#000000" stroke="none" font-family="Arial" font-size="13px" font-style="normal" font-weight="normal" text-decoration="none" x="461" y="443.5">+checkPattern()</text></g></g><g transform="translate(-246,-278) scale(1,1)"><g><path fill="none" stroke="none"/><text fill="#000000" stroke="none" font-family="Arial" font-size="13px" font-style="normal" font-weight="normal" text-decoration="none" x="461" y="458.5">+checkPassword()</text></g></g><g transform="translate(-246,-278) scale(1,1)"><g><path fill="none" stroke="none"/><text fill="#000000" stroke="none" font-family="Arial" font-size="13px" font-style="normal" font-weight="normal" text-decoration="none" x="461" y="473.5">+checkCredential()</text></g></g><g transform="translate(-246,-278) scale(1,1)"><rect fill="#C0C0C0" stroke="none" x="831" y="412" width="135.43896484375" height="72" opacity="0.2"/></g><g transform="translate(-246,-278) scale(1,1)"><rect fill="#ffffff" stroke="none" x="824" y="405" width="135.43896484375" height="72"/></g><g transform="translate(-246,-278) scale(1,1)"><path fill="none" stroke="#000000" d="M 824 405 L 959.43896484375 405 L 959.43896484375 477 L 824 477 L 824 405 Z Z" stroke-miterlimit="10"/></g><g transform="translate(-246,-278) scale(1,1)"><path fill="none" stroke="#000000" d="M 824 430 L 959.43896484375 430" stroke-miterlimit="10"/></g><g transform="translate(-246,-278) scale(1,1)"><path fill="none" stroke="#000000" d="M 824 440 L 959.43896484375 440" stroke-miterlimit="10"/></g><g transform="translate(-246,-278) scale(1,1)"><g><path fill="none" stroke="none"/><text fill="#000000" stroke="none" font-family="Arial" font-size="13px" font-style="normal" font-weight="bold" text-decoration="none" x="832.8291015625" y="424.5">LockPatternChecker</text></g></g><g transform="translate(-246,-278) scale(1,1)"><g><path fill="none" stroke="none"/><text fill="#000000" stroke="none" font-family="Arial" font-size="13px" font-style="normal" font-weight="normal" text-decoration="none" x="829" y="457.5">+checkPattern()</text></g></g><g transform="translate(-246,-278) scale(1,1)"><g><path fill="none" stroke="none"/><text fill="#000000" stroke="none" font-family="Arial" font-size="13px" font-style="normal" font-weight="normal" text-decoration="none" x="829" y="472.5">+checkPassword()</text></g></g><g transform="translate(-246,-278) scale(1,1)"><path fill="none" stroke="#000000" d="M 823 441 L 575 441" stroke-miterlimit="10"/></g><g transform="translate(-246,-278) scale(1,1)"><path fill="#FFFFFF" stroke="none" d="M 585.1626748576241 436.790482243984 L 575 441 L 585.1626748576241 445.209517756016 L 597 441"/></g><g transform="translate(-246,-278) scale(1,1)"><path fill="none" stroke="#000000" d="M 585.1626748576241 436.790482243984 L 575 441 L 585.1626748576241 445.209517756016 L 597 441 L 585.1626748576241 436.790482243984" stroke-miterlimit="10"/></g><g transform="translate(-246,-278) scale(1,1)"><path fill="none" stroke="#000000" d="M 721 521 L 721 550" stroke-miterlimit="10"/></g><g transform="translate(-246,-278) scale(1,1)"><path fill="none" stroke="#000000" d="M 721 736 L 721 766" stroke-miterlimit="10"/></g><g transform="translate(-246,-278) scale(1,1)"><path fill="none" stroke="#000000" d="M 721 976 L 721 1006" stroke-miterlimit="10"/></g></g></svg>