<svg version="1.1" xmlns="http://www.w3.org/2000/svg" xmlns:xlink="http://www.w3.org/1999/xlink" width="1780" height="1068"><defs/><g><g transform="translate(-334,-94) scale(1,1)"><path fill="none" stroke="#000000" d="M 344 104 L 2104 104 L 2104 1152 L 344 1152 L 344 104" stroke-miterlimit="10"/></g><g transform="translate(-334,-94) scale(1,1)"><path fill="#ffffff" stroke="none" d="M 344 104 L 344 126 L 444.55712890625 126 L 455.55712890625 115 L 455.55712890625 104 L 344 104"/></g><g transform="translate(-334,-94) scale(1,1)"><path fill="none" stroke="#000000" d="M 344 104 L 344 126 L 444.55712890625 126 L 455.55712890625 115 L 455.55712890625 104 L 344 104 L 344 104" stroke-miterlimit="10"/></g><g transform="translate(-334,-94) scale(1,1)"><g><path fill="none" stroke="none"/><text fill="#000000" stroke="none" font-family="Arial" font-size="13px" font-style="normal" font-weight="normal" text-decoration="none" x="404.14990234375" y="121.5">Model</text></g></g><g transform="translate(-334,-94) scale(1,1)"><g><path fill="none" stroke="none"/><text fill="#000000" stroke="none" font-family="Arial" font-size="13px" font-style="normal" font-weight="bold" text-decoration="none" x="349" y="121.5">package</text></g></g><g transform="translate(-334,-94) scale(1,1)"><rect fill="#C0C0C0" stroke="none" x="1192" y="568" width="73.32080078125" height="61" opacity="0.2"/></g><g transform="translate(-334,-94) scale(1,1)"><rect fill="#ffffff" stroke="none" x="1185" y="561" width="73.32080078125" height="61"/></g><g transform="translate(-334,-94) scale(1,1)"><path fill="none" stroke="#000000" d="M 1185 561 L 1258.32080078125 561 L 1258.32080078125 622 L 1185 622 L 1185 561 Z Z" stroke-miterlimit="10"/></g><g transform="translate(-334,-94) scale(1,1)"><g><path fill="none" stroke="none"/><text fill="#000000" stroke="none" font-family="Arial" font-size="13px" font-style="normal" font-weight="normal" text-decoration="none" x="1189.5" y="578.5">«interface»</text></g></g><g transform="translate(-334,-94) scale(1,1)"><g><path fill="none" stroke="none"/><text fill="#000000" stroke="none" font-family="Arial" font-size="13px" font-style="normal" font-weight="bold" text-decoration="none" x="1194.562255859375" y="593.5">IInterface</text></g></g><g transform="translate(-334,-94) scale(1,1)"><rect fill="#C0C0C0" stroke="none" x="1309" y="697" width="303.8740234375" height="96" opacity="0.2"/></g><g transform="translate(-334,-94) scale(1,1)"><rect fill="#ffffff" stroke="none" x="1302" y="690" width="303.8740234375" height="96"/></g><g transform="translate(-334,-94) scale(1,1)"><path fill="none" stroke="#000000" d="M 1302 690 L 1605.8740234375 690 L 1605.8740234375 786 L 1302 786 L 1302 690 Z Z" stroke-miterlimit="10"/></g><g transform="translate(-334,-94) scale(1,1)"><path fill="none" stroke="#000000" d="M 1302 715 L 1605.8740234375 715" stroke-miterlimit="10"/></g><g transform="translate(-334,-94) scale(1,1)"><path fill="none" stroke="#000000" d="M 1302 725 L 1605.8740234375 725" stroke-miterlimit="10"/></g><g transform="translate(-334,-94) scale(1,1)"><g><path fill="none" stroke="none"/><text fill="#000000" stroke="none" font-family="Arial" font-size="13px" font-style="italic" font-weight="bold" text-decoration="none" x="1404.802978515625" y="709.5">IServiceManager</text></g></g><g transform="translate(-334,-94) scale(1,1)"><g><path fill="none" stroke="none"/><text fill="#000000" stroke="none" font-family="Arial" font-size="13px" font-style="normal" font-weight="normal" text-decoration="none" x="1307" y="742.5">+DECLARE_META_INTERFACE(ServiceManager)</text></g></g><g transform="translate(-334,-94) scale(1,1)"><g><path fill="none" stroke="none"/><text fill="#000000" stroke="none" font-family="Arial" font-size="13px" font-style="italic" font-weight="normal" text-decoration="none" x="1307" y="757.5">+checkService(name: String16&amp;): null</text></g></g><g transform="translate(-334,-94) scale(1,1)"><g><path fill="none" stroke="none"/><text fill="#000000" stroke="none" font-family="Arial" font-size="13px" font-style="italic" font-weight="normal" text-decoration="none" x="1307" y="772.5">+addService(name: String16&amp;, service)</text></g></g><g transform="translate(-334,-94) scale(1,1)"><rect fill="#C0C0C0" stroke="none" x="1729" y="563" width="133.6298828125" height="70" opacity="0.2"/></g><g transform="translate(-334,-94) scale(1,1)"><rect fill="#ffffff" stroke="none" x="1722" y="556" width="133.6298828125" height="70"/></g><g transform="translate(-334,-94) scale(1,1)"><path fill="none" stroke="#000000" d="M 1722 556 L 1855.6298828125 556 L 1855.6298828125 626 L 1722 626 L 1722 556 Z Z" stroke-miterlimit="10"/></g><g transform="translate(-334,-94) scale(1,1)"><path fill="none" stroke="#000000" d="M 1722 581 L 1855.6298828125 581" stroke-miterlimit="10"/></g><g transform="translate(-334,-94) scale(1,1)"><path fill="none" stroke="#000000" d="M 1722 604 L 1855.6298828125 604" stroke-miterlimit="10"/></g><g transform="translate(-334,-94) scale(1,1)"><g><path fill="none" stroke="none"/><text fill="#000000" stroke="none" font-family="Arial" font-size="13px" font-style="italic" font-weight="bold" text-decoration="none" x="1755.93408203125" y="575.5">BpRefBase</text></g></g><g transform="translate(-334,-94) scale(1,1)"><g><path fill="none" stroke="none"/><text fill="#000000" stroke="none" font-family="Arial" font-size="13px" font-style="normal" font-weight="normal" text-decoration="none" x="1727" y="598.5">+mRemote: IBinder*</text></g></g><g transform="translate(-334,-94) scale(1,1)"><g><path fill="none" stroke="none"/><text fill="#000000" stroke="none" font-family="Arial" font-size="13px" font-style="normal" font-weight="normal" text-decoration="none" x="1727" y="621.5">+remote(): null</text></g></g><g transform="translate(-334,-94) scale(1,1)"><rect fill="#C0C0C0" stroke="none" x="556" y="911" width="422.21337890625" height="57" opacity="0.2"/></g><g transform="translate(-334,-94) scale(1,1)"><rect fill="#ffffff" stroke="none" x="549" y="904" width="422.21337890625" height="57"/></g><g transform="translate(-334,-94) scale(1,1)"><path fill="none" stroke="#000000" d="M 549 904 L 971.21337890625 904 L 971.21337890625 961 L 549 961 L 549 904 Z Z" stroke-miterlimit="10"/></g><g transform="translate(-334,-94) scale(1,1)"><path fill="none" stroke="#000000" d="M 549 929 L 971.21337890625 929" stroke-miterlimit="10"/></g><g transform="translate(-334,-94) scale(1,1)"><path fill="none" stroke="#000000" d="M 549 939 L 971.21337890625 939" stroke-miterlimit="10"/></g><g transform="translate(-334,-94) scale(1,1)"><g><path fill="none" stroke="none"/><text fill="#000000" stroke="none" font-family="Arial" font-size="13px" font-style="normal" font-weight="bold" text-decoration="none" x="694.3544921875" y="923.5">BnMediaPlayerService</text></g></g><g transform="translate(-334,-94) scale(1,1)"><g><path fill="none" stroke="none"/><text fill="#000000" stroke="none" font-family="Arial" font-size="13px" font-style="normal" font-weight="normal" text-decoration="none" x="554" y="956.5">+onTransact(code, data: Parcel&amp;, reply, flags)</text></g></g><g transform="translate(-334,-94) scale(1,1)"><rect fill="#C0C0C0" stroke="none" x="519" y="555" width="496.423828125" height="87" opacity="0.2"/></g><g transform="translate(-334,-94) scale(1,1)"><rect fill="#ffffff" stroke="none" x="512" y="548" width="496.423828125" height="87"/></g><g transform="translate(-334,-94) scale(1,1)"><path fill="none" stroke="#000000" d="M 512 548 L 1008.423828125 548 L 1008.423828125 635 L 512 635 L 512 548 Z Z" stroke-miterlimit="10"/></g><g transform="translate(-334,-94) scale(1,1)"><path fill="none" stroke="#000000" d="M 512 573 L 1008.423828125 573" stroke-miterlimit="10"/></g><g transform="translate(-334,-94) scale(1,1)"><path fill="none" stroke="#000000" d="M 512 583 L 1008.423828125 583" stroke-miterlimit="10"/></g><g transform="translate(-334,-94) scale(1,1)"><g><path fill="none" stroke="none"/><text fill="#000000" stroke="none" font-family="Arial" font-size="13px" font-style="italic" font-weight="bold" text-decoration="none" x="737.08740234375" y="567.5">BBinder</text></g></g><g transform="translate(-334,-94) scale(1,1)"><g><path fill="none" stroke="none"/><text fill="#000000" stroke="none" font-family="Arial" font-size="13px" font-style="italic" font-weight="normal" text-decoration="none" x="517" y="600.5">+transact(code, data: Parcel&amp;, reply, flags)</text></g></g><g transform="translate(-334,-94) scale(1,1)"><g><path fill="none" stroke="none"/><text fill="#000000" stroke="none" font-family="Arial" font-size="13px" font-style="italic" font-weight="normal" text-decoration="none" x="517" y="615.5">+onTransact(code, data: Parcel&amp;, reply, flags)</text></g></g><g transform="translate(-334,-94) scale(1,1)"><g><path fill="none" stroke="none"/><text fill="#000000" stroke="none" font-family="Arial" font-size="13px" font-style="italic" font-weight="normal" text-decoration="none" x="517" y="630.5">+localBinder(): BBinder*</text></g></g><g transform="translate(-334,-94) scale(1,1)"><rect fill="#C0C0C0" stroke="none" x="1711" y="896" width="168.31982421875" height="87" opacity="0.2"/></g><g transform="translate(-334,-94) scale(1,1)"><rect fill="#ffffff" stroke="none" x="1704" y="889" width="168.31982421875" height="87"/></g><g transform="translate(-334,-94) scale(1,1)"><path fill="none" stroke="#000000" d="M 1704 889 L 1872.31982421875 889 L 1872.31982421875 976 L 1704 976 L 1704 889 Z Z" stroke-miterlimit="10"/></g><g transform="translate(-334,-94) scale(1,1)"><path fill="none" stroke="#000000" d="M 1704 914 L 1872.31982421875 914" stroke-miterlimit="10"/></g><g transform="translate(-334,-94) scale(1,1)"><path fill="none" stroke="#000000" d="M 1704 924 L 1872.31982421875 924" stroke-miterlimit="10"/></g><g transform="translate(-334,-94) scale(1,1)"><g><path fill="none" stroke="none"/><text fill="#000000" stroke="none" font-family="Arial" font-size="13px" font-style="normal" font-weight="bold" text-decoration="none" x="1722.40771484375" y="908.5">BpMediaPlayerService</text></g></g><g transform="translate(-334,-94) scale(1,1)"><g><path fill="none" stroke="none"/><text fill="#000000" stroke="none" font-family="Arial" font-size="13px" font-style="normal" font-weight="normal" text-decoration="none" x="1709" y="941.5">+createMediaRecorder()</text></g></g><g transform="translate(-334,-94) scale(1,1)"><g><path fill="none" stroke="none"/><text fill="#000000" stroke="none" font-family="Arial" font-size="13px" font-style="normal" font-weight="normal" text-decoration="none" x="1709" y="956.5">+createMetadataRetriever()</text></g></g><g transform="translate(-334,-94) scale(1,1)"><g><path fill="none" stroke="none"/><text fill="#000000" stroke="none" font-family="Arial" font-size="13px" font-style="normal" font-weight="normal" text-decoration="none" x="1709" y="971.5">+create()</text></g></g><g transform="translate(-334,-94) scale(1,1)"><rect fill="#C0C0C0" stroke="none" x="1308" y="194" width="496.423828125" height="132" opacity="0.2"/></g><g transform="translate(-334,-94) scale(1,1)"><rect fill="#ffffff" stroke="none" x="1301" y="187" width="496.423828125" height="132"/></g><g transform="translate(-334,-94) scale(1,1)"><path fill="none" stroke="#000000" d="M 1301 187 L 1797.423828125 187 L 1797.423828125 319 L 1301 319 L 1301 187 Z Z" stroke-miterlimit="10"/></g><g transform="translate(-334,-94) scale(1,1)"><path fill="none" stroke="#000000" d="M 1301 212 L 1797.423828125 212" stroke-miterlimit="10"/></g><g transform="translate(-334,-94) scale(1,1)"><path fill="none" stroke="#000000" d="M 1301 222 L 1797.423828125 222" stroke-miterlimit="10"/></g><g transform="translate(-334,-94) scale(1,1)"><g><path fill="none" stroke="none"/><text fill="#000000" stroke="none" font-family="Arial" font-size="13px" font-style="normal" font-weight="bold" text-decoration="none" x="1502.604248046875" y="206.5">IPCThreadState</text></g></g><g transform="translate(-334,-94) scale(1,1)"><g><path fill="none" stroke="none"/><text fill="#000000" stroke="none" font-family="Arial" font-size="13px" font-style="normal" font-weight="normal" text-decoration="none" x="1306" y="239.5">+self()</text></g></g><g transform="translate(-334,-94) scale(1,1)"><g><path fill="none" stroke="none"/><text fill="#000000" stroke="none" font-family="Arial" font-size="13px" font-style="normal" font-weight="normal" text-decoration="none" x="1306" y="254.5">+joinThreadPool(isMain: bool)</text></g></g><g transform="translate(-334,-94) scale(1,1)"><g><path fill="none" stroke="none"/><text fill="#000000" stroke="none" font-family="Arial" font-size="13px" font-style="normal" font-weight="normal" text-decoration="none" x="1306" y="269.5">+transact(handle, code, data: Parcel&amp;, reply, flags)</text></g></g><g transform="translate(-334,-94) scale(1,1)"><g><path fill="none" stroke="none"/><text fill="#000000" stroke="none" font-family="Arial" font-size="13px" font-style="normal" font-weight="normal" text-decoration="none" x="1306" y="284.5">-waitForResponse(reply, acquireResult = NULL)</text></g></g><g transform="translate(-334,-94) scale(1,1)"><g><path fill="none" stroke="none"/><text fill="#000000" stroke="none" font-family="Arial" font-size="13px" font-style="normal" font-weight="normal" text-decoration="none" x="1306" y="299.5">-getAndExecuteCommand()</text></g></g><g transform="translate(-334,-94) scale(1,1)"><g><path fill="none" stroke="none"/><text fill="#000000" stroke="none" font-family="Arial" font-size="13px" font-style="normal" font-weight="normal" text-decoration="none" x="1306" y="314.5">-executeCommand(command)</text></g></g><g transform="translate(-334,-94) scale(1,1)"><rect fill="#C0C0C0" stroke="none" x="941" y="203" width="253.55615234375" height="115" opacity="0.2"/></g><g transform="translate(-334,-94) scale(1,1)"><rect fill="#ffffff" stroke="none" x="934" y="196" width="253.55615234375" height="115"/></g><g transform="translate(-334,-94) scale(1,1)"><path fill="none" stroke="#000000" d="M 934 196 L 1187.55615234375 196 L 1187.55615234375 311 L 934 311 L 934 196 Z Z" stroke-miterlimit="10"/></g><g transform="translate(-334,-94) scale(1,1)"><path fill="none" stroke="#000000" d="M 934 221 L 1187.55615234375 221" stroke-miterlimit="10"/></g><g transform="translate(-334,-94) scale(1,1)"><path fill="none" stroke="#000000" d="M 934 259 L 1187.55615234375 259" stroke-miterlimit="10"/></g><g transform="translate(-334,-94) scale(1,1)"><g><path fill="none" stroke="none"/><text fill="#000000" stroke="none" font-family="Arial" font-size="13px" font-style="normal" font-weight="bold" text-decoration="none" x="1022.120849609375" y="215.5">ProcessState</text></g></g><g transform="translate(-334,-94) scale(1,1)"><g><path fill="none" stroke="none"/><text fill="#000000" stroke="none" font-family="Arial" font-size="13px" font-style="normal" font-weight="normal" text-decoration="none" x="939" y="238.5">-mDriverFD: int = open_driver(/dev/binder)</text></g></g><g transform="translate(-334,-94) scale(1,1)"><g><path fill="none" stroke="none"/><text fill="#000000" stroke="none" font-family="Arial" font-size="13px" font-style="normal" font-weight="normal" text-decoration="none" x="939" y="253.5">-mDriverName: Strring8 = /dev/binder</text></g></g><g transform="translate(-334,-94) scale(1,1)"><g><path fill="none" stroke="none"/><text fill="#000000" stroke="none" font-family="Arial" font-size="13px" font-style="normal" font-weight="normal" text-decoration="none" x="939" y="276.5">+self()</text><path fill="none" stroke="#000000" d="M 939 276.5 L 975.47998046875 276.5" stroke-miterlimit="10"/></g></g><g transform="translate(-334,-94) scale(1,1)"><g><path fill="none" stroke="none"/><text fill="#000000" stroke="none" font-family="Arial" font-size="13px" font-style="normal" font-weight="normal" text-decoration="none" x="939" y="291.5">+startThreadPool()</text></g></g><g transform="translate(-334,-94) scale(1,1)"><g><path fill="none" stroke="none"/><text fill="#000000" stroke="none" font-family="Arial" font-size="13px" font-style="normal" font-weight="normal" text-decoration="none" x="939" y="306.5">+spawnPooledThread(isMain: bool)</text></g></g><g transform="translate(-334,-94) scale(1,1)"><path fill="none" stroke="#000000" d="M 1189 253 L 1300 253" stroke-miterlimit="10"/></g><g transform="translate(-334,-94) scale(1,1)"><rect fill="#C0C0C0" stroke="none" x="1308" y="423" width="496.423828125" height="85" opacity="0.2"/></g><g transform="translate(-334,-94) scale(1,1)"><rect fill="#ffffff" stroke="none" x="1301" y="416" width="496.423828125" height="85"/></g><g transform="translate(-334,-94) scale(1,1)"><path fill="none" stroke="#000000" d="M 1301 416 L 1797.423828125 416 L 1797.423828125 501 L 1301 501 L 1301 416 Z Z" stroke-miterlimit="10"/></g><g transform="translate(-334,-94) scale(1,1)"><path fill="none" stroke="#000000" d="M 1301 441 L 1797.423828125 441" stroke-miterlimit="10"/></g><g transform="translate(-334,-94) scale(1,1)"><path fill="none" stroke="#000000" d="M 1301 464 L 1797.423828125 464" stroke-miterlimit="10"/></g><g transform="translate(-334,-94) scale(1,1)"><g><path fill="none" stroke="none"/><text fill="#000000" stroke="none" font-family="Arial" font-size="13px" font-style="normal" font-weight="bold" text-decoration="none" x="1522.472412109375" y="435.5">BpBinder</text></g></g><g transform="translate(-334,-94) scale(1,1)"><g><path fill="none" stroke="none"/><text fill="#000000" stroke="none" font-family="Arial" font-size="13px" font-style="normal" font-weight="normal" text-decoration="none" x="1306" y="458.5">-mHandle</text></g></g><g transform="translate(-334,-94) scale(1,1)"><g><path fill="none" stroke="none"/><text fill="#000000" stroke="none" font-family="Arial" font-size="13px" font-style="normal" font-weight="normal" text-decoration="none" x="1306" y="481.5">+transact(handle, code, data: Parcel&amp;, reply, flags)</text></g></g><g transform="translate(-334,-94) scale(1,1)"><g><path fill="none" stroke="none"/><text fill="#000000" stroke="none" font-family="Arial" font-size="13px" font-style="normal" font-weight="normal" text-decoration="none" x="1306" y="496.5">+remoteBinder()</text></g></g><g transform="translate(-334,-94) scale(1,1)"><path fill="none" stroke="#000000" d="M 1549 415 L 1549 320" stroke-miterlimit="10"/></g><g transform="translate(-334,-94) scale(1,1)"><rect fill="#C0C0C0" stroke="none" x="1701" y="717" width="189.27978515625" height="57" opacity="0.2"/></g><g transform="translate(-334,-94) scale(1,1)"><rect fill="#ffffff" stroke="none" x="1694" y="710" width="189.27978515625" height="57"/></g><g transform="translate(-334,-94) scale(1,1)"><path fill="none" stroke="#000000" d="M 1694 710 L 1883.27978515625 710 L 1883.27978515625 767 L 1694 767 L 1694 710 Z Z" stroke-miterlimit="10"/></g><g transform="translate(-334,-94) scale(1,1)"><path fill="none" stroke="#000000" d="M 1694 735 L 1883.27978515625 735" stroke-miterlimit="10"/></g><g transform="translate(-334,-94) scale(1,1)"><path fill="none" stroke="#000000" d="M 1694 745 L 1883.27978515625 745" stroke-miterlimit="10"/></g><g transform="translate(-334,-94) scale(1,1)"><g><path fill="none" stroke="none"/><text fill="#000000" stroke="none" font-family="Arial" font-size="13px" font-style="italic" font-weight="bold" text-decoration="none" x="1755.397216796875" y="729.5">BpInterface</text></g></g><g transform="translate(-334,-94) scale(1,1)"><g><path fill="none" stroke="none"/><text fill="#000000" stroke="none" font-family="Arial" font-size="13px" font-style="normal" font-weight="normal" text-decoration="none" x="1699" y="762.5">+BpInterface(remote: IBinder&amp;)</text></g></g><g transform="translate(-334,-94) scale(1,1)"><path fill="none" stroke="#000000" d="M 1788 709 L 1788 627" stroke-miterlimit="10"/></g><g transform="translate(-334,-94) scale(1,1)"><path fill="#FFFFFF" stroke="none" d="M 1796.419035512032 647.3253497152483 L 1788 627 L 1779.580964487968 647.3253497152483"/></g><g transform="translate(-334,-94) scale(1,1)"><path fill="none" stroke="#000000" d="M 1796.419035512032 647.3253497152483 L 1788 627 L 1779.580964487968 647.3253497152483 L 1796.419035512032 647.3253497152483" stroke-miterlimit="10"/></g><g transform="translate(-334,-94) scale(1,1)"><path fill="none" stroke="#000000" d="M 1788 888 L 1788 768" stroke-miterlimit="10"/></g><g transform="translate(-334,-94) scale(1,1)"><path fill="#FFFFFF" stroke="none" d="M 1796.419035512032 788.3253497152483 L 1788 768 L 1779.580964487968 788.3253497152483"/></g><g transform="translate(-334,-94) scale(1,1)"><path fill="none" stroke="#000000" d="M 1796.419035512032 788.3253497152483 L 1788 768 L 1779.580964487968 788.3253497152483 L 1796.419035512032 788.3253497152483" stroke-miterlimit="10"/></g><g transform="translate(-334,-94) scale(1,1)"><path fill="none" stroke="#000000" d="M 1376 689 L 1259 615" stroke-miterlimit="10"/></g><g transform="translate(-334,-94) scale(1,1)"><path fill="#FFFFFF" stroke="none" d="M 1280.678157702441 618.7493304239684 L 1259 615 L 1271.6775953473305 632.9799492827245"/></g><g transform="translate(-334,-94) scale(1,1)"><path fill="none" stroke="#000000" d="M 1280.678157702441 618.7493304239684 L 1259 615 L 1271.6775953473305 632.9799492827245 L 1280.678157702441 618.7493304239684" stroke-miterlimit="10"/></g><g transform="translate(-334,-94) scale(1,1)"><rect fill="#C0C0C0" stroke="none" x="1415" y="562" width="283.93603515625" height="72" opacity="0.2"/></g><g transform="translate(-334,-94) scale(1,1)"><rect fill="#ffffff" stroke="none" x="1408" y="555" width="283.93603515625" height="72"/></g><g transform="translate(-334,-94) scale(1,1)"><path fill="none" stroke="#000000" d="M 1408 555 L 1691.93603515625 555 L 1691.93603515625 627 L 1408 627 L 1408 555 Z Z" stroke-miterlimit="10"/></g><g transform="translate(-334,-94) scale(1,1)"><path fill="none" stroke="#000000" d="M 1408 580 L 1691.93603515625 580" stroke-miterlimit="10"/></g><g transform="translate(-334,-94) scale(1,1)"><path fill="none" stroke="#000000" d="M 1408 590 L 1691.93603515625 590" stroke-miterlimit="10"/></g><g transform="translate(-334,-94) scale(1,1)"><g><path fill="none" stroke="none"/><text fill="#000000" stroke="none" font-family="Arial" font-size="13px" font-style="normal" font-weight="bold" text-decoration="none" x="1494.689453125" y="574.5">BpServiceManager</text></g></g><g transform="translate(-334,-94) scale(1,1)"><g><path fill="none" stroke="none"/><text fill="#000000" stroke="none" font-family="Arial" font-size="13px" font-style="normal" font-weight="normal" text-decoration="none" x="1413" y="607.5">+checkService(name: String16&amp;): null</text></g></g><g transform="translate(-334,-94) scale(1,1)"><g><path fill="none" stroke="none"/><text fill="#000000" stroke="none" font-family="Arial" font-size="13px" font-style="normal" font-weight="normal" text-decoration="none" x="1413" y="622.5">+addService(name: String16&amp;, service)</text></g></g><g transform="translate(-334,-94) scale(1,1)"><path fill="none" stroke="#000000" d="M 1525 628 L 1485 689" stroke-miterlimit="10"/></g><g transform="translate(-334,-94) scale(1,1)"><path fill="#FFFFFF" stroke="none" d="M 1489.1051760001592 667.3864040472735 L 1485 689 L 1503.185918051676 676.6196775236779"/></g><g transform="translate(-334,-94) scale(1,1)"><path fill="none" stroke="#000000" d="M 1489.1051760001592 667.3864040472735 L 1485 689 L 1503.185918051676 676.6196775236779 L 1489.1051760001592 667.3864040472735" stroke-miterlimit="10"/></g><g transform="translate(-334,-94) scale(1,1)"><path fill="none" stroke="#000000" d="M 1609 628 L 1741 709" stroke-miterlimit="10"/></g><g transform="translate(-334,-94) scale(1,1)"><path fill="#FFFFFF" stroke="none" d="M 1719.2729503416535 705.545247744954 L 1741 709 L 1728.0795345982688 691.1937771045438"/></g><g transform="translate(-334,-94) scale(1,1)"><path fill="none" stroke="#000000" d="M 1719.2729503416535 705.545247744954 L 1741 709 L 1728.0795345982688 691.1937771045438 L 1719.2729503416535 705.545247744954" stroke-miterlimit="10"/></g><g transform="translate(-334,-94) scale(1,1)"><path fill="none" stroke="#000000" d="M 1607 738 L 1693 738" stroke-miterlimit="10"/></g><g transform="translate(-334,-94) scale(1,1)"><rect fill="#C0C0C0" stroke="none" x="1060" y="888" width="336" height="102" opacity="0.2"/></g><g transform="translate(-334,-94) scale(1,1)"><rect fill="#ffffff" stroke="none" x="1053" y="881" width="336" height="102"/></g><g transform="translate(-334,-94) scale(1,1)"><path fill="none" stroke="#000000" d="M 1053 881 L 1389 881 L 1389 983 L 1053 983 L 1053 881 Z Z" stroke-miterlimit="10"/></g><g transform="translate(-334,-94) scale(1,1)"><path fill="none" stroke="#000000" d="M 1053 906 L 1389 906" stroke-miterlimit="10"/></g><g transform="translate(-334,-94) scale(1,1)"><path fill="none" stroke="#000000" d="M 1053 916 L 1389 916" stroke-miterlimit="10"/></g><g transform="translate(-334,-94) scale(1,1)"><g><path fill="none" stroke="none"/><text fill="#000000" stroke="none" font-family="Arial" font-size="13px" font-style="normal" font-weight="bold" text-decoration="none" x="1161.392333984375" y="900.5">IMediaPlayerService</text></g></g><g transform="translate(-334,-94) scale(1,1)"><g><path fill="none" stroke="none"/><text fill="#000000" stroke="none" font-family="Arial" font-size="13px" font-style="normal" font-weight="normal" text-decoration="none" x="1058" y="933.5">+DECLARE_META_INTERFACE(MediaPlayerService)</text></g></g><g transform="translate(-334,-94) scale(1,1)"><g><path fill="none" stroke="none"/><text fill="#000000" stroke="none" font-family="Arial" font-size="13px" font-style="normal" font-weight="normal" text-decoration="none" x="1058" y="948.5">+createMediaRecorder()</text></g></g><g transform="translate(-334,-94) scale(1,1)"><g><path fill="none" stroke="none"/><text fill="#000000" stroke="none" font-family="Arial" font-size="13px" font-style="normal" font-weight="normal" text-decoration="none" x="1058" y="963.5">+createMetadataRetriever()</text></g></g><g transform="translate(-334,-94) scale(1,1)"><g><path fill="none" stroke="none"/><text fill="#000000" stroke="none" font-family="Arial" font-size="13px" font-style="normal" font-weight="normal" text-decoration="none" x="1058" y="978.5">+create()</text></g></g><g transform="translate(-334,-94) scale(1,1)"><path fill="none" stroke="#000000" d="M 1221 880 L 1221 623" stroke-miterlimit="10"/></g><g transform="translate(-334,-94) scale(1,1)"><path fill="#FFFFFF" stroke="none" d="M 1229.419035512032 643.3253497152483 L 1221 623 L 1212.580964487968 643.3253497152483"/></g><g transform="translate(-334,-94) scale(1,1)"><path fill="none" stroke="#000000" d="M 1229.419035512032 643.3253497152483 L 1221 623 L 1212.580964487968 643.3253497152483 L 1229.419035512032 643.3253497152483" stroke-miterlimit="10"/></g><g transform="translate(-334,-94) scale(1,1)"><path fill="none" stroke="#000000" d="M 972 932 L 1052 932" stroke-miterlimit="10"/></g><g transform="translate(-334,-94) scale(1,1)"><path fill="#FFFFFF" stroke="none" d="M 1031.6746502847518 940.419035512032 L 1052 932 L 1031.6746502847516 923.580964487968"/></g><g transform="translate(-334,-94) scale(1,1)"><path fill="none" stroke="#000000" d="M 1031.6746502847518 940.419035512032 L 1052 932 L 1031.6746502847516 923.580964487968 L 1031.6746502847518 940.419035512032" stroke-miterlimit="10"/></g><g transform="translate(-334,-94) scale(1,1)"><path fill="none" stroke="#000000" d="M 1703 932 L 1390 932" stroke-miterlimit="10"/></g><g transform="translate(-334,-94) scale(1,1)"><path fill="#FFFFFF" stroke="none" d="M 1410.3253497152482 923.580964487968 L 1390 932 L 1410.3253497152482 940.419035512032"/></g><g transform="translate(-334,-94) scale(1,1)"><path fill="none" stroke="#000000" d="M 1410.3253497152482 923.580964487968 L 1390 932 L 1410.3253497152482 940.419035512032 L 1410.3253497152482 923.580964487968" stroke-miterlimit="10"/></g><g transform="translate(-334,-94) scale(1,1)"><path fill="none" stroke="#000000" d="M 1373 880 L 1700 768" stroke-miterlimit="10"/></g><g transform="translate(-334,-94) scale(1,1)"><rect fill="#C0C0C0" stroke="none" x="723" y="723" width="88" height="44" opacity="0.2"/></g><g transform="translate(-334,-94) scale(1,1)"><rect fill="#ffffff" stroke="none" x="716" y="716" width="88" height="44"/></g><g transform="translate(-334,-94) scale(1,1)"><path fill="none" stroke="#000000" d="M 716 716 L 804 716 L 804 760 L 716 760 L 716 716 Z Z" stroke-miterlimit="10"/></g><g transform="translate(-334,-94) scale(1,1)"><path fill="none" stroke="#000000" d="M 716 741 L 804 741" stroke-miterlimit="10"/></g><g transform="translate(-334,-94) scale(1,1)"><path fill="none" stroke="#000000" d="M 716 751 L 804 751" stroke-miterlimit="10"/></g><g transform="translate(-334,-94) scale(1,1)"><g><path fill="none" stroke="none"/><text fill="#000000" stroke="none" font-family="Arial" font-size="13px" font-style="normal" font-weight="bold" text-decoration="none" x="726.75732421875" y="735.5">BnInterface</text></g></g><g transform="translate(-334,-94) scale(1,1)"><path fill="none" stroke="#000000" d="M 760 903 L 760 761" stroke-miterlimit="10"/></g><g transform="translate(-334,-94) scale(1,1)"><path fill="#FFFFFF" stroke="none" d="M 768.419035512032 781.3253497152483 L 760 761 L 751.580964487968 781.3253497152483"/></g><g transform="translate(-334,-94) scale(1,1)"><path fill="none" stroke="#000000" d="M 768.419035512032 781.3253497152483 L 760 761 L 751.580964487968 781.3253497152483 L 768.419035512032 781.3253497152483" stroke-miterlimit="10"/></g><g transform="translate(-334,-94) scale(1,1)"><path fill="none" stroke="#000000" d="M 760 715 L 760 636" stroke-miterlimit="10"/></g><g transform="translate(-334,-94) scale(1,1)"><path fill="#FFFFFF" stroke="none" d="M 768.419035512032 656.3253497152483 L 760 636 L 751.580964487968 656.3253497152483"/></g><g transform="translate(-334,-94) scale(1,1)"><path fill="none" stroke="#000000" d="M 768.419035512032 656.3253497152483 L 760 636 L 751.580964487968 656.3253497152483 L 768.419035512032 656.3253497152483" stroke-miterlimit="10"/></g><g transform="translate(-334,-94) scale(1,1)"><path fill="none" stroke="#000000" d="M 1097 880 L 805 757" stroke-miterlimit="10"/></g><g transform="translate(-334,-94) scale(1,1)"><path fill="none" stroke="#000000" d="M 1872 936 L 1942 936 L 1942 460 L 1797 460" stroke-miterlimit="10"/></g><g transform="translate(-334,-94) scale(1,1)"><path fill="#FFFFFF" stroke="none" d="M 1807.162674857624 455.790482243984 L 1797 460 L 1807.162674857624 464.209517756016 L 1819 460"/></g><g transform="translate(-334,-94) scale(1,1)"><path fill="none" stroke="#000000" d="M 1807.162674857624 455.790482243984 L 1797 460 L 1807.162674857624 464.209517756016 L 1819 460 L 1807.162674857624 455.790482243984" stroke-miterlimit="10"/></g><g transform="translate(-334,-94) scale(1,1)"><path fill="none" stroke="#000000" d="M 1549 554 L 1549 502" stroke-miterlimit="10"/></g><g transform="translate(-334,-94) scale(1,1)"><path fill="#FFFFFF" stroke="none" d="M 1553.2095177560159 512.1626748576241 L 1549 502 L 1544.7904822439841 512.1626748576241 L 1549 524"/></g><g transform="translate(-334,-94) scale(1,1)"><path fill="none" stroke="#000000" d="M 1553.2095177560159 512.1626748576241 L 1549 502 L 1544.7904822439841 512.1626748576241 L 1549 524 L 1553.2095177560159 512.1626748576241" stroke-miterlimit="10"/></g><g transform="translate(-334,-94) scale(1,1)"><rect fill="#C0C0C0" stroke="none" x="519" y="422" width="496.423828125" height="87" opacity="0.2"/></g><g transform="translate(-334,-94) scale(1,1)"><rect fill="#ffffff" stroke="none" x="512" y="415" width="496.423828125" height="87"/></g><g transform="translate(-334,-94) scale(1,1)"><path fill="none" stroke="#000000" d="M 512 415 L 1008.423828125 415 L 1008.423828125 502 L 512 502 L 512 415 Z Z" stroke-miterlimit="10"/></g><g transform="translate(-334,-94) scale(1,1)"><path fill="none" stroke="#000000" d="M 512 440 L 1008.423828125 440" stroke-miterlimit="10"/></g><g transform="translate(-334,-94) scale(1,1)"><path fill="none" stroke="#000000" d="M 512 450 L 1008.423828125 450" stroke-miterlimit="10"/></g><g transform="translate(-334,-94) scale(1,1)"><g><path fill="none" stroke="none"/><text fill="#000000" stroke="none" font-family="Arial" font-size="13px" font-style="normal" font-weight="bold" text-decoration="none" x="739.616943359375" y="434.5">IBinder</text></g></g><g transform="translate(-334,-94) scale(1,1)"><g><path fill="none" stroke="none"/><text fill="#000000" stroke="none" font-family="Arial" font-size="13px" font-style="italic" font-weight="normal" text-decoration="none" x="517" y="467.5">+transact(handle, code, data: Parcel&amp;, reply, flags)</text></g></g><g transform="translate(-334,-94) scale(1,1)"><g><path fill="none" stroke="none"/><text fill="#000000" stroke="none" font-family="Arial" font-size="13px" font-style="italic" font-weight="normal" text-decoration="none" x="517" y="482.5">+localBinder(): BBinder*</text></g></g><g transform="translate(-334,-94) scale(1,1)"><g><path fill="none" stroke="none"/><text fill="#000000" stroke="none" font-family="Arial" font-size="13px" font-style="italic" font-weight="normal" text-decoration="none" x="517" y="497.5">+remoteBinder(): null</text></g></g><g transform="translate(-334,-94) scale(1,1)"><path fill="none" stroke="#000000" d="M 1300 458 L 1009 458" stroke-miterlimit="10"/></g><g transform="translate(-334,-94) scale(1,1)"><path fill="#FFFFFF" stroke="none" d="M 1029.3253497152482 449.580964487968 L 1009 458 L 1029.3253497152482 466.419035512032"/></g><g transform="translate(-334,-94) scale(1,1)"><path fill="none" stroke="#000000" d="M 1029.3253497152482 449.580964487968 L 1009 458 L 1029.3253497152482 466.419035512032 L 1029.3253497152482 449.580964487968" stroke-miterlimit="10"/></g><g transform="translate(-334,-94) scale(1,1)"><path fill="none" stroke="#000000" d="M 760 547 L 760 503" stroke-miterlimit="10"/></g><g transform="translate(-334,-94) scale(1,1)"><path fill="#FFFFFF" stroke="none" d="M 768.419035512032 523.3253497152483 L 760 503 L 751.580964487968 523.3253497152483"/></g><g transform="translate(-334,-94) scale(1,1)"><path fill="none" stroke="#000000" d="M 768.419035512032 523.3253497152483 L 760 503 L 751.580964487968 523.3253497152483 L 768.419035512032 523.3253497152483" stroke-miterlimit="10"/></g><g transform="translate(-334,-94) scale(1,1)"><rect fill="#C0C0C0" stroke="none" x="672" y="1015" width="190.7080078125" height="88" opacity="0.2"/></g><g transform="translate(-334,-94) scale(1,1)"><rect fill="#ffffff" stroke="none" x="665" y="1008" width="190.7080078125" height="88"/></g><g transform="translate(-334,-94) scale(1,1)"><path fill="none" stroke="#000000" d="M 665 1008 L 855.7080078125 1008 L 855.7080078125 1096 L 665 1096 L 665 1008 Z Z" stroke-miterlimit="10"/></g><g transform="translate(-334,-94) scale(1,1)"><path fill="none" stroke="#000000" d="M 665 1033 L 855.7080078125 1033" stroke-miterlimit="10"/></g><g transform="translate(-334,-94) scale(1,1)"><path fill="none" stroke="#000000" d="M 665 1043 L 855.7080078125 1043" stroke-miterlimit="10"/></g><g transform="translate(-334,-94) scale(1,1)"><g><path fill="none" stroke="none"/><text fill="#000000" stroke="none" font-family="Arial" font-size="13px" font-style="normal" font-weight="bold" text-decoration="none" x="702.55224609375" y="1027.5">MediaPlayerService</text></g></g><g transform="translate(-334,-94) scale(1,1)"><g><path fill="none" stroke="none"/><text fill="#000000" stroke="none" font-family="Arial" font-size="13px" font-style="normal" font-weight="normal" text-decoration="none" x="670" y="1060.5">+createMediaRecorder()</text></g></g><g transform="translate(-334,-94) scale(1,1)"><g><path fill="none" stroke="none"/><text fill="#000000" stroke="none" font-family="Arial" font-size="13px" font-style="normal" font-weight="normal" text-decoration="none" x="670" y="1075.5">+createMetadataRetriever()</text></g></g><g transform="translate(-334,-94) scale(1,1)"><g><path fill="none" stroke="none"/><text fill="#000000" stroke="none" font-family="Arial" font-size="13px" font-style="normal" font-weight="normal" text-decoration="none" x="670" y="1090.5">+create()</text></g></g><g transform="translate(-334,-94) scale(1,1)"><path fill="none" stroke="#000000" d="M 760 1007 L 760 962" stroke-miterlimit="10"/></g><g transform="translate(-334,-94) scale(1,1)"><path fill="#FFFFFF" stroke="none" d="M 768.419035512032 982.3253497152483 L 760 962 L 751.580964487968 982.3253497152483"/></g><g transform="translate(-334,-94) scale(1,1)"><path fill="none" stroke="#000000" d="M 768.419035512032 982.3253497152483 L 760 962 L 751.580964487968 982.3253497152483 L 768.419035512032 982.3253497152483" stroke-miterlimit="10"/></g><g transform="translate(-334,-94) scale(1,1)"><path fill="none" stroke="#000000" d="M 934 248 L 448 248 L 448 1052 L 665 1052" stroke-miterlimit="10"/></g><g transform="translate(-334,-94) scale(1,1)"><path fill="#FFFFFF" stroke="none" d="M 654.8373251423759 1056.2095177560159 L 665 1052 L 654.8373251423758 1047.7904822439841 L 643 1052"/></g><g transform="translate(-334,-94) scale(1,1)"><path fill="none" stroke="#000000" d="M 654.8373251423759 1056.2095177560159 L 665 1052 L 654.8373251423758 1047.7904822439841 L 643 1052 L 654.8373251423759 1056.2095177560159" stroke-miterlimit="10"/></g></g></svg>