<svg version="1.1" xmlns="http://www.w3.org/2000/svg" xmlns:xlink="http://www.w3.org/1999/xlink" width="1179" height="811"><defs/><g><g transform="translate(-62,2) scale(1,1)"><path fill="none" stroke="#000000" d="M 72 8 L 1231 8 L 1231 799 L 72 799 L 72 8" stroke-miterlimit="10"/></g><g transform="translate(-62,2) scale(1,1)"><path fill="#ffffff" stroke="none" d="M 72 8 L 72 30 L 223.83984375 30 L 234.83984375 19 L 234.83984375 8 L 72 8"/></g><g transform="translate(-62,2) scale(1,1)"><path fill="none" stroke="#000000" d="M 72 8 L 72 30 L 223.83984375 30 L 234.83984375 19 L 234.83984375 8 L 72 8 L 72 8" stroke-miterlimit="10"/></g><g transform="translate(-62,2) scale(1,1)"><g><path fill="none" stroke="none"/><text fill="#000000" stroke="none" font-family="Arial" font-size="13px" font-style="normal" font-weight="normal" text-decoration="none" x="132.14990234375" y="25.5">SystemService</text></g></g><g transform="translate(-62,2) scale(1,1)"><g><path fill="none" stroke="none"/><text fill="#000000" stroke="none" font-family="Arial" font-size="13px" font-style="normal" font-weight="bold" text-decoration="none" x="77" y="25.5">package</text></g></g><g transform="translate(-62,2) scale(1,1)"><rect fill="#C0C0C0" stroke="none" x="831" y="343" width="147.37255859375" height="237" opacity="0.2"/></g><g transform="translate(-62,2) scale(1,1)"><rect fill="#ffffff" stroke="none" x="824" y="336" width="147.37255859375" height="237"/></g><g transform="translate(-62,2) scale(1,1)"><path fill="none" stroke="#000000" d="M 824 336 L 971.37255859375 336 L 971.37255859375 573 L 824 573 L 824 336 Z Z" stroke-miterlimit="10"/></g><g transform="translate(-62,2) scale(1,1)"><path fill="none" stroke="#000000" d="M 824 361 L 971.37255859375 361" stroke-miterlimit="10"/></g><g transform="translate(-62,2) scale(1,1)"><path fill="none" stroke="#000000" d="M 824 371 L 971.37255859375 371" stroke-miterlimit="10"/></g><g transform="translate(-62,2) scale(1,1)"><g><path fill="none" stroke="none"/><text fill="#000000" stroke="none" font-family="Arial" font-size="13px" font-style="italic" font-weight="bold" text-decoration="none" x="854.34130859375" y="355.5">SystemService</text></g></g><g transform="translate(-62,2) scale(1,1)"><g><path fill="none" stroke="none"/><text fill="#000000" stroke="none" font-family="Arial" font-size="13px" font-style="italic" font-weight="normal" text-decoration="none" x="829" y="388.5">+SystemService()</text></g></g><g transform="translate(-62,2) scale(1,1)"><g><path fill="none" stroke="none"/><text fill="#000000" stroke="none" font-family="Arial" font-size="13px" font-style="italic" font-weight="normal" text-decoration="none" x="829" y="403.5">+onStart()</text></g></g><g transform="translate(-62,2) scale(1,1)"><g><path fill="none" stroke="none"/><text fill="#000000" stroke="none" font-family="Arial" font-size="13px" font-style="normal" font-weight="normal" text-decoration="none" x="829" y="418.5">+onBootPhase()</text></g></g><g transform="translate(-62,2) scale(1,1)"><g><path fill="none" stroke="none"/><text fill="#000000" stroke="none" font-family="Arial" font-size="13px" font-style="normal" font-weight="normal" text-decoration="none" x="829" y="433.5">+onStartUser()</text></g></g><g transform="translate(-62,2) scale(1,1)"><g><path fill="none" stroke="none"/><text fill="#000000" stroke="none" font-family="Arial" font-size="13px" font-style="normal" font-weight="normal" text-decoration="none" x="829" y="448.5">+onUnlockUser()</text></g></g><g transform="translate(-62,2) scale(1,1)"><g><path fill="none" stroke="none"/><text fill="#000000" stroke="none" font-family="Arial" font-size="13px" font-style="normal" font-weight="normal" text-decoration="none" x="829" y="463.5">+onSwitchUser()</text></g></g><g transform="translate(-62,2) scale(1,1)"><g><path fill="none" stroke="none"/><text fill="#000000" stroke="none" font-family="Arial" font-size="13px" font-style="normal" font-weight="normal" text-decoration="none" x="829" y="478.5">+onStopUser()</text></g></g><g transform="translate(-62,2) scale(1,1)"><g><path fill="none" stroke="none"/><text fill="#000000" stroke="none" font-family="Arial" font-size="13px" font-style="normal" font-weight="normal" text-decoration="none" x="829" y="493.5">+onCleanupUser()</text></g></g><g transform="translate(-62,2) scale(1,1)"><g><path fill="none" stroke="none"/><text fill="#000000" stroke="none" font-family="Arial" font-size="13px" font-style="normal" font-weight="normal" text-decoration="none" x="829" y="508.5">+publishBinderService()</text></g></g><g transform="translate(-62,2) scale(1,1)"><g><path fill="none" stroke="none"/><text fill="#000000" stroke="none" font-family="Arial" font-size="13px" font-style="normal" font-weight="normal" text-decoration="none" x="829" y="523.5">+getBinderService()</text></g></g><g transform="translate(-62,2) scale(1,1)"><g><path fill="none" stroke="none"/><text fill="#000000" stroke="none" font-family="Arial" font-size="13px" font-style="normal" font-weight="normal" text-decoration="none" x="829" y="538.5">+publishBinderService()</text></g></g><g transform="translate(-62,2) scale(1,1)"><g><path fill="none" stroke="none"/><text fill="#000000" stroke="none" font-family="Arial" font-size="13px" font-style="normal" font-weight="normal" text-decoration="none" x="829" y="553.5">+getLocalService()</text></g></g><g transform="translate(-62,2) scale(1,1)"><g><path fill="none" stroke="none"/><text fill="#000000" stroke="none" font-family="Arial" font-size="13px" font-style="normal" font-weight="normal" text-decoration="none" x="829" y="568.5">+getManager()</text></g></g><g transform="translate(-62,2) scale(1,1)"><rect fill="#C0C0C0" stroke="none" x="831" y="703" width="147.734375" height="72" opacity="0.2"/></g><g transform="translate(-62,2) scale(1,1)"><rect fill="#ffffff" stroke="none" x="824" y="696" width="147.734375" height="72"/></g><g transform="translate(-62,2) scale(1,1)"><path fill="none" stroke="#000000" d="M 824 696 L 971.734375 696 L 971.734375 768 L 824 768 L 824 696 Z Z" stroke-miterlimit="10"/></g><g transform="translate(-62,2) scale(1,1)"><path fill="none" stroke="#000000" d="M 824 721 L 971.734375 721" stroke-miterlimit="10"/></g><g transform="translate(-62,2) scale(1,1)"><path fill="none" stroke="#000000" d="M 824 731 L 971.734375 731" stroke-miterlimit="10"/></g><g transform="translate(-62,2) scale(1,1)"><g><path fill="none" stroke="none"/><text fill="#000000" stroke="none" font-family="Arial" font-size="13px" font-style="normal" font-weight="bold" text-decoration="none" x="832.114990234375" y="715.5">PowerManagerService</text></g></g><g transform="translate(-62,2) scale(1,1)"><g><path fill="none" stroke="none"/><text fill="#000000" stroke="none" font-family="Arial" font-size="13px" font-style="normal" font-weight="normal" text-decoration="none" x="829" y="748.5">+onStart()</text></g></g><g transform="translate(-62,2) scale(1,1)"><g><path fill="none" stroke="none"/><text fill="#000000" stroke="none" font-family="Arial" font-size="13px" font-style="normal" font-weight="normal" text-decoration="none" x="829" y="763.5">+onBootPhase()</text></g></g><g transform="translate(-62,2) scale(1,1)"><rect fill="#C0C0C0" stroke="none" x="607" y="122" width="141.58984375" height="117" opacity="0.2"/></g><g transform="translate(-62,2) scale(1,1)"><rect fill="#ffffff" stroke="none" x="600" y="115" width="141.58984375" height="117"/></g><g transform="translate(-62,2) scale(1,1)"><path fill="none" stroke="#000000" d="M 600 115 L 741.58984375 115 L 741.58984375 232 L 600 232 L 600 115 Z Z" stroke-miterlimit="10"/></g><g transform="translate(-62,2) scale(1,1)"><path fill="none" stroke="#000000" d="M 600 140 L 741.58984375 140" stroke-miterlimit="10"/></g><g transform="translate(-62,2) scale(1,1)"><path fill="none" stroke="#000000" d="M 600 150 L 741.58984375 150" stroke-miterlimit="10"/></g><g transform="translate(-62,2) scale(1,1)"><g><path fill="none" stroke="none"/><text fill="#000000" stroke="none" font-family="Arial" font-size="13px" font-style="normal" font-weight="bold" text-decoration="none" x="623.466796875" y="134.5">ServiceManager</text></g></g><g transform="translate(-62,2) scale(1,1)"><g><path fill="none" stroke="none"/><text fill="#000000" stroke="none" font-family="Arial" font-size="13px" font-style="normal" font-weight="normal" text-decoration="none" x="605" y="167.5">+getIServiceManager()</text><path fill="none" stroke="#000000" d="M 605 167.5 L 737.58984375 167.5" stroke-miterlimit="10"/></g></g><g transform="translate(-62,2) scale(1,1)"><g><path fill="none" stroke="none"/><text fill="#000000" stroke="none" font-family="Arial" font-size="13px" font-style="normal" font-weight="normal" text-decoration="none" x="605" y="182.5">+getService()</text><path fill="none" stroke="#000000" d="M 605 182.5 L 682.669921875 182.5" stroke-miterlimit="10"/></g></g><g transform="translate(-62,2) scale(1,1)"><g><path fill="none" stroke="none"/><text fill="#000000" stroke="none" font-family="Arial" font-size="13px" font-style="normal" font-weight="normal" text-decoration="none" x="605" y="197.5">+addService()</text><path fill="none" stroke="#000000" d="M 605 197.5 L 686.2880859375 197.5" stroke-miterlimit="10"/></g></g><g transform="translate(-62,2) scale(1,1)"><g><path fill="none" stroke="none"/><text fill="#000000" stroke="none" font-family="Arial" font-size="13px" font-style="normal" font-weight="normal" text-decoration="none" x="605" y="212.5">+checkService()</text><path fill="none" stroke="#000000" d="M 605 212.5 L 698.55810546875 212.5" stroke-miterlimit="10"/></g></g><g transform="translate(-62,2) scale(1,1)"><g><path fill="none" stroke="none"/><text fill="#000000" stroke="none" font-family="Arial" font-size="13px" font-style="normal" font-weight="normal" text-decoration="none" x="605" y="227.5">+listServices()</text><path fill="none" stroke="#000000" d="M 605 227.5 L 686.986328125 227.5" stroke-miterlimit="10"/></g></g><g transform="translate(-62,2) scale(1,1)"><path fill="none" stroke="#000000" d="M 897 695 L 897 574" stroke-miterlimit="10"/></g><g transform="translate(-62,2) scale(1,1)"><path fill="#FFFFFF" stroke="none" d="M 905.419035512032 594.3253497152483 L 897 574 L 888.580964487968 594.3253497152483"/></g><g transform="translate(-62,2) scale(1,1)"><path fill="none" stroke="#000000" d="M 905.419035512032 594.3253497152483 L 897 574 L 888.580964487968 594.3253497152483 L 905.419035512032 594.3253497152483" stroke-miterlimit="10"/></g><g transform="translate(-62,2) scale(1,1)"><rect fill="#C0C0C0" stroke="none" x="991" y="138" width="141.58984375" height="85" opacity="0.2"/></g><g transform="translate(-62,2) scale(1,1)"><rect fill="#ffffff" stroke="none" x="984" y="131" width="141.58984375" height="85"/></g><g transform="translate(-62,2) scale(1,1)"><path fill="none" stroke="#000000" d="M 984 131 L 1125.58984375 131 L 1125.58984375 216 L 984 216 L 984 131 Z Z" stroke-miterlimit="10"/></g><g transform="translate(-62,2) scale(1,1)"><path fill="none" stroke="#000000" d="M 984 156 L 1125.58984375 156" stroke-miterlimit="10"/></g><g transform="translate(-62,2) scale(1,1)"><path fill="none" stroke="#000000" d="M 984 179 L 1125.58984375 179" stroke-miterlimit="10"/></g><g transform="translate(-62,2) scale(1,1)"><g><path fill="none" stroke="none"/><text fill="#000000" stroke="none" font-family="Arial" font-size="13px" font-style="normal" font-weight="bold" text-decoration="none" x="1014.331787109375" y="150.5">LocalServices</text></g></g><g transform="translate(-62,2) scale(1,1)"><g><path fill="none" stroke="none"/><text fill="#000000" stroke="none" font-family="Arial" font-size="13px" font-style="normal" font-weight="normal" text-decoration="none" x="989" y="173.5">+sLocalServiceObjects</text><path fill="none" stroke="#000000" d="M 989 173.5 L 1121.58984375 173.5" stroke-miterlimit="10"/></g></g><g transform="translate(-62,2) scale(1,1)"><g><path fill="none" stroke="none"/><text fill="#000000" stroke="none" font-family="Arial" font-size="13px" font-style="normal" font-weight="normal" text-decoration="none" x="989" y="196.5">+getService()</text><path fill="none" stroke="#000000" d="M 989 196.5 L 1066.669921875 196.5" stroke-miterlimit="10"/></g></g><g transform="translate(-62,2) scale(1,1)"><g><path fill="none" stroke="none"/><text fill="#000000" stroke="none" font-family="Arial" font-size="13px" font-style="normal" font-weight="normal" text-decoration="none" x="989" y="211.5">+addService()</text><path fill="none" stroke="#000000" d="M 989 211.5 L 1070.2880859375 211.5" stroke-miterlimit="10"/></g></g><g transform="translate(-62,2) scale(1,1)"><path fill="none" stroke="#000000" d="M 823 362 L 718 233" stroke-miterlimit="10"/></g><g transform="translate(-62,2) scale(1,1)"><path fill="none" stroke="#000000" d="M 963 335 L 1029 217" stroke-miterlimit="10"/></g><g transform="translate(-62,2) scale(1,1)"><rect fill="#C0C0C0" stroke="none" x="159" y="396" width="165.4189453125" height="130" opacity="0.2"/></g><g transform="translate(-62,2) scale(1,1)"><rect fill="#ffffff" stroke="none" x="152" y="389" width="165.4189453125" height="130"/></g><g transform="translate(-62,2) scale(1,1)"><path fill="none" stroke="#000000" d="M 152 389 L 317.4189453125 389 L 317.4189453125 519 L 152 519 L 152 389 Z Z" stroke-miterlimit="10"/></g><g transform="translate(-62,2) scale(1,1)"><path fill="none" stroke="#000000" d="M 152 414 L 317.4189453125 414" stroke-miterlimit="10"/></g><g transform="translate(-62,2) scale(1,1)"><path fill="none" stroke="#000000" d="M 152 437 L 317.4189453125 437" stroke-miterlimit="10"/></g><g transform="translate(-62,2) scale(1,1)"><g><path fill="none" stroke="none"/><text fill="#000000" stroke="none" font-family="Arial" font-size="13px" font-style="normal" font-weight="bold" text-decoration="none" x="193.89404296875" y="408.5">SystemServer</text></g></g><g transform="translate(-62,2) scale(1,1)"><g><path fill="none" stroke="none"/><text fill="#000000" stroke="none" font-family="Arial" font-size="13px" font-style="normal" font-weight="normal" text-decoration="none" x="157" y="431.5">+mSystemServiceManager</text></g></g><g transform="translate(-62,2) scale(1,1)"><g><path fill="none" stroke="none"/><text fill="#000000" stroke="none" font-family="Arial" font-size="13px" font-style="normal" font-weight="normal" text-decoration="none" x="157" y="454.5">+main()</text></g></g><g transform="translate(-62,2) scale(1,1)"><g><path fill="none" stroke="none"/><text fill="#000000" stroke="none" font-family="Arial" font-size="13px" font-style="normal" font-weight="normal" text-decoration="none" x="157" y="469.5">+run()</text></g></g><g transform="translate(-62,2) scale(1,1)"><g><path fill="none" stroke="none"/><text fill="#000000" stroke="none" font-family="Arial" font-size="13px" font-style="normal" font-weight="normal" text-decoration="none" x="157" y="484.5">+startBootstrapServices()</text></g></g><g transform="translate(-62,2) scale(1,1)"><g><path fill="none" stroke="none"/><text fill="#000000" stroke="none" font-family="Arial" font-size="13px" font-style="normal" font-weight="normal" text-decoration="none" x="157" y="499.5">+startCoreServices()</text></g></g><g transform="translate(-62,2) scale(1,1)"><g><path fill="none" stroke="none"/><text fill="#000000" stroke="none" font-family="Arial" font-size="13px" font-style="normal" font-weight="normal" text-decoration="none" x="157" y="514.5">+startOtherServices()</text></g></g><g transform="translate(-62,2) scale(1,1)"><rect fill="#C0C0C0" stroke="none" x="487" y="381" width="166.52978515625" height="160" opacity="0.2"/></g><g transform="translate(-62,2) scale(1,1)"><rect fill="#ffffff" stroke="none" x="480" y="374" width="166.52978515625" height="160"/></g><g transform="translate(-62,2) scale(1,1)"><path fill="none" stroke="#000000" d="M 480 374 L 646.52978515625 374 L 646.52978515625 534 L 480 534 L 480 374 Z Z" stroke-miterlimit="10"/></g><g transform="translate(-62,2) scale(1,1)"><path fill="none" stroke="#000000" d="M 480 399 L 646.52978515625 399" stroke-miterlimit="10"/></g><g transform="translate(-62,2) scale(1,1)"><path fill="none" stroke="#000000" d="M 480 422 L 646.52978515625 422" stroke-miterlimit="10"/></g><g transform="translate(-62,2) scale(1,1)"><g><path fill="none" stroke="none"/><text fill="#000000" stroke="none" font-family="Arial" font-size="13px" font-style="normal" font-weight="bold" text-decoration="none" x="494.265869140625" y="393.5">SystemServiceManager</text></g></g><g transform="translate(-62,2) scale(1,1)"><g><path fill="none" stroke="none"/><text fill="#000000" stroke="none" font-family="Arial" font-size="13px" font-style="normal" font-weight="normal" text-decoration="none" x="485" y="416.5">+mServices</text></g></g><g transform="translate(-62,2) scale(1,1)"><g><path fill="none" stroke="none"/><text fill="#000000" stroke="none" font-family="Arial" font-size="13px" font-style="normal" font-weight="normal" text-decoration="none" x="485" y="439.5">+startService()</text></g></g><g transform="translate(-62,2) scale(1,1)"><g><path fill="none" stroke="none"/><text fill="#000000" stroke="none" font-family="Arial" font-size="13px" font-style="normal" font-weight="normal" text-decoration="none" x="485" y="454.5">+startBootPhase()</text></g></g><g transform="translate(-62,2) scale(1,1)"><g><path fill="none" stroke="none"/><text fill="#000000" stroke="none" font-family="Arial" font-size="13px" font-style="normal" font-weight="normal" text-decoration="none" x="485" y="469.5">+startUser()</text></g></g><g transform="translate(-62,2) scale(1,1)"><g><path fill="none" stroke="none"/><text fill="#000000" stroke="none" font-family="Arial" font-size="13px" font-style="normal" font-weight="normal" text-decoration="none" x="485" y="484.5">+unlockUser()</text></g></g><g transform="translate(-62,2) scale(1,1)"><g><path fill="none" stroke="none"/><text fill="#000000" stroke="none" font-family="Arial" font-size="13px" font-style="normal" font-weight="normal" text-decoration="none" x="485" y="499.5">+switchUser()</text></g></g><g transform="translate(-62,2) scale(1,1)"><g><path fill="none" stroke="none"/><text fill="#000000" stroke="none" font-family="Arial" font-size="13px" font-style="normal" font-weight="normal" text-decoration="none" x="485" y="514.5">+stopUser()</text></g></g><g transform="translate(-62,2) scale(1,1)"><g><path fill="none" stroke="none"/><text fill="#000000" stroke="none" font-family="Arial" font-size="13px" font-style="normal" font-weight="normal" text-decoration="none" x="485" y="529.5">+cleanupUser()</text></g></g><g transform="translate(-62,2) scale(1,1)"><path fill="none" stroke="#000000" d="M 648 454 L 823 454" stroke-miterlimit="10"/></g><g transform="translate(-62,2) scale(1,1)"><path fill="#FFFFFF" stroke="none" d="M 812.8373251423759 458.209517756016 L 823 454 L 812.8373251423758 449.790482243984 L 801 454"/></g><g transform="translate(-62,2) scale(1,1)"><path fill="none" stroke="#000000" d="M 812.8373251423759 458.209517756016 L 823 454 L 812.8373251423758 449.790482243984 L 801 454 L 812.8373251423759 458.209517756016" stroke-miterlimit="10"/></g><g transform="translate(-62,2) scale(1,1)"><path fill="none" stroke="#000000" d="M 318 454 L 479 454" stroke-miterlimit="10"/></g><g transform="translate(-62,2) scale(1,1)"><path fill="#FFFFFF" stroke="none" d="M 468.83732514237585 458.209517756016 L 479 454 L 468.83732514237585 449.790482243984 L 457 454"/></g><g transform="translate(-62,2) scale(1,1)"><path fill="none" stroke="#000000" d="M 468.83732514237585 458.209517756016 L 479 454 L 468.83732514237585 449.790482243984 L 457 454 L 468.83732514237585 458.209517756016" stroke-miterlimit="10"/></g><g transform="translate(-62,2) scale(1,1)"><rect fill="#C0C0C0" stroke="none" x="296" y="158" width="104.86865234375" height="44" opacity="0.2"/></g><g transform="translate(-62,2) scale(1,1)"><rect fill="#ffffff" stroke="none" x="289" y="151" width="104.86865234375" height="44"/></g><g transform="translate(-62,2) scale(1,1)"><path fill="none" stroke="#000000" d="M 289 151 L 393.86865234375 151 L 393.86865234375 195 L 289 195 L 289 151 Z Z" stroke-miterlimit="10"/></g><g transform="translate(-62,2) scale(1,1)"><path fill="none" stroke="#000000" d="M 289 176 L 393.86865234375 176" stroke-miterlimit="10"/></g><g transform="translate(-62,2) scale(1,1)"><path fill="none" stroke="#000000" d="M 289 186 L 393.86865234375 186" stroke-miterlimit="10"/></g><g transform="translate(-62,2) scale(1,1)"><g><path fill="none" stroke="none"/><text fill="#000000" stroke="none" font-family="Arial" font-size="13px" font-style="normal" font-weight="bold" text-decoration="none" x="297.1181640625" y="170.5">VibratorService</text></g></g><g transform="translate(-62,2) scale(1,1)"><rect fill="#C0C0C0" stroke="none" x="278" y="55" width="140.97412109375" height="44" opacity="0.2"/></g><g transform="translate(-62,2) scale(1,1)"><rect fill="#ffffff" stroke="none" x="271" y="48" width="140.97412109375" height="44"/></g><g transform="translate(-62,2) scale(1,1)"><path fill="none" stroke="#000000" d="M 271 48 L 411.97412109375 48 L 411.97412109375 92 L 271 92 L 271 48 Z Z" stroke-miterlimit="10"/></g><g transform="translate(-62,2) scale(1,1)"><path fill="none" stroke="#000000" d="M 271 73 L 411.97412109375 73" stroke-miterlimit="10"/></g><g transform="translate(-62,2) scale(1,1)"><path fill="none" stroke="#000000" d="M 271 83 L 411.97412109375 83" stroke-miterlimit="10"/></g><g transform="translate(-62,2) scale(1,1)"><g><path fill="none" stroke="none"/><text fill="#000000" stroke="none" font-family="Arial" font-size="13px" font-style="normal" font-weight="bold" text-decoration="none" x="280.187744140625" y="67.5">IVibratorService.Stub</text></g></g><g transform="translate(-62,2) scale(1,1)"><path fill="none" stroke="#000000" d="M 341 150 L 341 93" stroke-miterlimit="10"/></g><g transform="translate(-62,2) scale(1,1)"><path fill="#FFFFFF" stroke="none" d="M 349.419035512032 113.32534971524831 L 341 93 L 332.580964487968 113.32534971524831"/></g><g transform="translate(-62,2) scale(1,1)"><path fill="none" stroke="#000000" d="M 349.419035512032 113.32534971524831 L 341 93 L 332.580964487968 113.32534971524831 L 349.419035512032 113.32534971524831" stroke-miterlimit="10"/></g><g transform="translate(-62,2) scale(1,1)"><path fill="none" stroke="#000000" d="M 395 173 L 599 173" stroke-miterlimit="10"/></g><g transform="translate(-62,2) scale(1,1)"><path fill="none" stroke="#000000" d="M 259 388 L 332 196" stroke-miterlimit="10"/></g></g></svg>