<svg version="1.1" xmlns="http://www.w3.org/2000/svg" xmlns:xlink="http://www.w3.org/1999/xlink" width="1260" height="772"><defs/><g><g transform="translate(-22,10) scale(1,1)"><path fill="none" stroke="#000000" d="M 32 0 L 1272 0 L 1272 752 L 32 752 L 32 0" stroke-miterlimit="10"/></g><g transform="translate(-22,10) scale(1,1)"><path fill="#ffffff" stroke="none" d="M 32 0 L 32 22 L 263.28076171875 22 L 274.28076171875 11 L 274.28076171875 0 L 32 0"/></g><g transform="translate(-22,10) scale(1,1)"><path fill="none" stroke="#000000" d="M 32 0 L 32 22 L 263.28076171875 22 L 274.28076171875 11 L 274.28076171875 0 L 32 0 L 32 0" stroke-miterlimit="10"/></g><g transform="translate(-22,10) scale(1,1)"><g><path fill="none" stroke="none"/><text fill="#000000" stroke="none" font-family="Arial" font-size="13px" font-style="normal" font-weight="normal" text-decoration="none" x="102.97900390625" y="17.5">SystemService 注册流程图</text></g></g><g transform="translate(-22,10) scale(1,1)"><g><path fill="none" stroke="none"/><text fill="#000000" stroke="none" font-family="Arial" font-size="13px" font-style="normal" font-weight="bold" text-decoration="none" x="37" y="17.5">interaction</text></g></g><g transform="translate(-22,10) scale(1,1)"><rect fill="#C0C0C0" stroke="none" x="103" y="47" width="105.72802734375" height="39" opacity="0.2"/></g><g transform="translate(-22,10) scale(1,1)"><rect fill="#ffffff" stroke="none" x="96" y="40" width="105.72802734375" height="39"/></g><g transform="translate(-22,10) scale(1,1)"><path fill="none" stroke="#000000" d="M 96 40 L 201.72802734375 40 L 201.72802734375 79 L 96 79 L 96 40 Z Z" stroke-miterlimit="10"/></g><g transform="translate(-22,10) scale(1,1)"><g><path fill="none" stroke="none"/><text fill="#000000" stroke="none" font-family="Arial" font-size="13px" font-style="normal" font-weight="bold" text-decoration="none" x="108.048583984375" y="59.5">SystemServer</text></g></g><g transform="translate(-22,10) scale(1,1)"><path fill="none" stroke="#000000" d="M 149.5 80 L 149.5 720" stroke-miterlimit="10" stroke-dasharray="3"/></g><g transform="translate(-22,10) scale(1,1)"><rect fill="#C0C0C0" stroke="none" x="295" y="47" width="164.970703125" height="39" opacity="0.2"/></g><g transform="translate(-22,10) scale(1,1)"><rect fill="#ffffff" stroke="none" x="288" y="40" width="164.970703125" height="39"/></g><g transform="translate(-22,10) scale(1,1)"><path fill="none" stroke="#000000" d="M 288 40 L 452.970703125 40 L 452.970703125 79 L 288 79 L 288 40 Z Z" stroke-miterlimit="10"/></g><g transform="translate(-22,10) scale(1,1)"><g><path fill="none" stroke="none"/><text fill="#000000" stroke="none" font-family="Arial" font-size="13px" font-style="normal" font-weight="bold" text-decoration="none" x="301.486328125" y="59.5">SystemServiceManager</text></g></g><g transform="translate(-22,10) scale(1,1)"><path fill="none" stroke="#000000" d="M 371.5 80 L 371.5 720" stroke-miterlimit="10" stroke-dasharray="3"/></g><g transform="translate(-22,10) scale(1,1)"><rect fill="#C0C0C0" stroke="none" x="767" y="47" width="111.5107421875" height="39" opacity="0.2"/></g><g transform="translate(-22,10) scale(1,1)"><rect fill="#ffffff" stroke="none" x="760" y="40" width="111.5107421875" height="39"/></g><g transform="translate(-22,10) scale(1,1)"><path fill="none" stroke="#000000" d="M 760 40 L 871.5107421875 40 L 871.5107421875 79 L 760 79 L 760 40 Z Z" stroke-miterlimit="10"/></g><g transform="translate(-22,10) scale(1,1)"><g><path fill="none" stroke="none"/><text fill="#000000" stroke="none" font-family="Arial" font-size="13px" font-style="normal" font-weight="bold" text-decoration="none" x="772.410400390625" y="59.5">SystemService</text></g></g><g transform="translate(-22,10) scale(1,1)"><path fill="none" stroke="#000000" d="M 816.5 80 L 816.5 720" stroke-miterlimit="10" stroke-dasharray="3"/></g><g transform="translate(-22,10) scale(1,1)"><rect fill="#C0C0C0" stroke="none" x="535" y="47" width="157.734375" height="39" opacity="0.2"/></g><g transform="translate(-22,10) scale(1,1)"><rect fill="#ffffff" stroke="none" x="528" y="40" width="157.734375" height="39"/></g><g transform="translate(-22,10) scale(1,1)"><path fill="none" stroke="#000000" d="M 528 40 L 685.734375 40 L 685.734375 79 L 528 79 L 528 40 Z Z" stroke-miterlimit="10"/></g><g transform="translate(-22,10) scale(1,1)"><g><path fill="none" stroke="none"/><text fill="#000000" stroke="none" font-family="Arial" font-size="13px" font-style="normal" font-weight="bold" text-decoration="none" x="541.114990234375" y="59.5">PowerManagerService</text></g></g><g transform="translate(-22,10) scale(1,1)"><path fill="none" stroke="#000000" d="M 607.5 80 L 607.5 720" stroke-miterlimit="10" stroke-dasharray="3"/></g><g transform="translate(-22,10) scale(1,1)"><rect fill="#C0C0C0" stroke="none" x="951" y="47" width="118.7216796875" height="39" opacity="0.2"/></g><g transform="translate(-22,10) scale(1,1)"><rect fill="#ffffff" stroke="none" x="944" y="40" width="118.7216796875" height="39"/></g><g transform="translate(-22,10) scale(1,1)"><path fill="none" stroke="#000000" d="M 944 40 L 1062.7216796875 40 L 1062.7216796875 79 L 944 79 L 944 40 Z Z" stroke-miterlimit="10"/></g><g transform="translate(-22,10) scale(1,1)"><g><path fill="none" stroke="none"/><text fill="#000000" stroke="none" font-family="Arial" font-size="13px" font-style="normal" font-weight="bold" text-decoration="none" x="956.03271484375" y="59.5">ServiceManager</text></g></g><g transform="translate(-22,10) scale(1,1)"><path fill="none" stroke="#000000" d="M 1004.5 80 L 1004.5 720" stroke-miterlimit="10" stroke-dasharray="3"/></g><g transform="translate(-22,10) scale(1,1)"><rect fill="#C0C0C0" stroke="none" x="1135" y="47" width="106.4453125" height="39" opacity="0.2"/></g><g transform="translate(-22,10) scale(1,1)"><rect fill="#ffffff" stroke="none" x="1128" y="40" width="106.4453125" height="39"/></g><g transform="translate(-22,10) scale(1,1)"><path fill="none" stroke="#000000" d="M 1128 40 L 1234.4453125 40 L 1234.4453125 79 L 1128 79 L 1128 40 Z Z" stroke-miterlimit="10"/></g><g transform="translate(-22,10) scale(1,1)"><g><path fill="none" stroke="none"/><text fill="#000000" stroke="none" font-family="Arial" font-size="13px" font-style="normal" font-weight="bold" text-decoration="none" x="1140.759521484375" y="59.5">LocalServices</text></g></g><g transform="translate(-22,10) scale(1,1)"><path fill="none" stroke="#000000" d="M 1182.5 80 L 1182.5 720" stroke-miterlimit="10" stroke-dasharray="3"/></g><g transform="translate(-22,10) scale(1,1)"><path fill="none" stroke="#000000" d="M 149 128 L 179 128 L 179 148 L 155 148" stroke-miterlimit="10"/></g><g transform="translate(-22,10) scale(1,1)"><path fill="#000000" stroke="none" d="M 165.16267485762415 143.790482243984 L 155 148 L 165.16267485762415 152.209517756016"/></g><g transform="translate(-22,10) scale(1,1)"><path fill="none" stroke="#000000" d="M 165.16267485762415 143.790482243984 L 155 148 L 165.16267485762415 152.209517756016 L 165.16267485762415 143.790482243984" stroke-miterlimit="10"/></g><g transform="translate(-22,10) scale(1,1)"><g><path fill="none" stroke="none"/><text fill="#000000" stroke="none" font-family="Arial" font-size="13px" font-style="normal" font-weight="normal" text-decoration="none" x="164.40087890625" y="143.5">1 : main</text></g></g><g transform="translate(-22,10) scale(1,1)"><rect fill="#ffffff" stroke="none" x="142" y="148" width="13" height="492"/></g><g transform="translate(-22,10) scale(1,1)"><path fill="none" stroke="#000000" d="M 142 148 L 155 148 L 155 640 L 142 640 L 142 148 Z Z" stroke-miterlimit="10"/></g><g transform="translate(-22,10) scale(1,1)"><path fill="none" stroke="#000000" d="M 155 168 L 185 168 L 185 188 L 162 188" stroke-miterlimit="10"/></g><g transform="translate(-22,10) scale(1,1)"><path fill="#000000" stroke="none" d="M 172.16267485762415 183.790482243984 L 162 188 L 172.16267485762415 192.209517756016"/></g><g transform="translate(-22,10) scale(1,1)"><path fill="none" stroke="#000000" d="M 172.16267485762415 183.790482243984 L 162 188 L 172.16267485762415 192.209517756016 L 172.16267485762415 183.790482243984" stroke-miterlimit="10"/></g><g transform="translate(-22,10) scale(1,1)"><g><path fill="none" stroke="none"/><text fill="#000000" stroke="none" font-family="Arial" font-size="13px" font-style="normal" font-weight="normal" text-decoration="none" x="175.094970703125" y="183.5">2 : run</text></g></g><g transform="translate(-22,10) scale(1,1)"><rect fill="#ffffff" stroke="none" x="149" y="188" width="13" height="412"/></g><g transform="translate(-22,10) scale(1,1)"><path fill="none" stroke="#000000" d="M 149 188 L 162 188 L 162 600 L 149 600 L 149 188 Z Z" stroke-miterlimit="10"/></g><g transform="translate(-22,10) scale(1,1)"><path fill="none" stroke="#000000" d="M 162 208 L 192 208 L 192 228 L 169 228" stroke-miterlimit="10"/></g><g transform="translate(-22,10) scale(1,1)"><path fill="#000000" stroke="none" d="M 179.16267485762415 223.790482243984 L 169 228 L 179.16267485762415 232.209517756016"/></g><g transform="translate(-22,10) scale(1,1)"><path fill="none" stroke="#000000" d="M 179.16267485762415 223.790482243984 L 169 228 L 179.16267485762415 232.209517756016 L 179.16267485762415 223.790482243984" stroke-miterlimit="10"/></g><g transform="translate(-22,10) scale(1,1)"><g><path fill="none" stroke="none"/><text fill="#000000" stroke="none" font-family="Arial" font-size="13px" font-style="normal" font-weight="normal" text-decoration="none" x="126.5" y="223.5">3 : startBootstrapServices</text></g></g><g transform="translate(-22,10) scale(1,1)"><rect fill="#ffffff" stroke="none" x="156" y="228" width="13" height="332"/></g><g transform="translate(-22,10) scale(1,1)"><path fill="none" stroke="#000000" d="M 156 228 L 169 228 L 169 560 L 156 560 L 156 228 Z Z" stroke-miterlimit="10"/></g><g transform="translate(-22,10) scale(1,1)"><path fill="none" stroke="#000000" d="M 169 250 L 364 250" stroke-miterlimit="10"/></g><g transform="translate(-22,10) scale(1,1)"><path fill="#000000" stroke="none" d="M 353.83732514237585 254.209517756016 L 364 250 L 353.83732514237585 245.790482243984"/></g><g transform="translate(-22,10) scale(1,1)"><path fill="none" stroke="#000000" d="M 353.83732514237585 254.209517756016 L 364 250 L 353.83732514237585 245.790482243984 L 353.83732514237585 254.209517756016" stroke-miterlimit="10"/></g><g transform="translate(-22,10) scale(1,1)"><g><path fill="none" stroke="none"/><text fill="#000000" stroke="none" font-family="Arial" font-size="13px" font-style="normal" font-weight="normal" text-decoration="none" x="222.5" y="246.5">4 : startService</text></g></g><g transform="translate(-22,10) scale(1,1)"><rect fill="#ffffff" stroke="none" x="364" y="250" width="13" height="294"/></g><g transform="translate(-22,10) scale(1,1)"><path fill="none" stroke="#000000" d="M 364 250 L 377 250 L 377 544 L 364 544 L 364 250 Z Z" stroke-miterlimit="10"/></g><g transform="translate(-22,10) scale(1,1)"><path fill="none" stroke="#000000" d="M 377 280 L 600 280" stroke-miterlimit="10"/></g><g transform="translate(-22,10) scale(1,1)"><path fill="#000000" stroke="none" d="M 589.8373251423759 284.209517756016 L 600 280 L 589.8373251423758 275.790482243984"/></g><g transform="translate(-22,10) scale(1,1)"><path fill="none" stroke="#000000" d="M 589.8373251423759 284.209517756016 L 600 280 L 589.8373251423758 275.790482243984 L 589.8373251423759 284.209517756016" stroke-miterlimit="10"/></g><g transform="translate(-22,10) scale(1,1)"><g><path fill="none" stroke="none"/><text fill="#000000" stroke="none" font-family="Arial" font-size="13px" font-style="normal" font-weight="normal" text-decoration="none" x="457.53271484375" y="276.5">5 : onStart</text></g></g><g transform="translate(-22,10) scale(1,1)"><rect fill="#ffffff" stroke="none" x="600" y="280" width="13" height="248"/></g><g transform="translate(-22,10) scale(1,1)"><path fill="none" stroke="#000000" d="M 600 280 L 613 280 L 613 528 L 600 528 L 600 280 Z Z" stroke-miterlimit="10"/></g><g transform="translate(-22,10) scale(1,1)"><path fill="none" stroke="#000000" d="M 613 320 L 809 320" stroke-miterlimit="10"/></g><g transform="translate(-22,10) scale(1,1)"><path fill="#000000" stroke="none" d="M 798.8373251423759 324.209517756016 L 809 320 L 798.8373251423758 315.790482243984"/></g><g transform="translate(-22,10) scale(1,1)"><path fill="none" stroke="#000000" d="M 798.8373251423759 324.209517756016 L 809 320 L 798.8373251423758 315.790482243984 L 798.8373251423759 324.209517756016" stroke-miterlimit="10"/></g><g transform="translate(-22,10) scale(1,1)"><g><path fill="none" stroke="none"/><text fill="#000000" stroke="none" font-family="Arial" font-size="13px" font-style="normal" font-weight="normal" text-decoration="none" x="640.5" y="316.5">6 : publishBinderService</text></g></g><g transform="translate(-22,10) scale(1,1)"><rect fill="#ffffff" stroke="none" x="809" y="320" width="13" height="64"/></g><g transform="translate(-22,10) scale(1,1)"><path fill="none" stroke="#000000" d="M 809 320 L 822 320 L 822 384 L 809 384 L 809 320 Z Z" stroke-miterlimit="10"/></g><g transform="translate(-22,10) scale(1,1)"><path fill="none" stroke="#000000" d="M 822 329 L 997 329" stroke-miterlimit="10"/></g><g transform="translate(-22,10) scale(1,1)"><path fill="#000000" stroke="none" d="M 986.8373251423759 333.209517756016 L 997 329 L 986.8373251423758 324.790482243984"/></g><g transform="translate(-22,10) scale(1,1)"><path fill="none" stroke="#000000" d="M 986.8373251423759 333.209517756016 L 997 329 L 986.8373251423758 324.790482243984 L 986.8373251423759 333.209517756016" stroke-miterlimit="10"/></g><g transform="translate(-22,10) scale(1,1)"><g><path fill="none" stroke="none"/><text fill="#000000" stroke="none" font-family="Arial" font-size="13px" font-style="normal" font-weight="normal" text-decoration="none" x="867.5" y="325.5">7 : addService</text></g></g><g transform="translate(-22,10) scale(1,1)"><rect fill="#ffffff" stroke="none" x="997" y="329" width="13" height="39"/></g><g transform="translate(-22,10) scale(1,1)"><path fill="none" stroke="#000000" d="M 997 329 L 1010 329 L 1010 368 L 997 368 L 997 329 Z Z" stroke-miterlimit="10"/></g><g transform="translate(-22,10) scale(1,1)"><path fill="none" stroke="#000000" d="M 997 360 L 822 360" stroke-miterlimit="10" stroke-dasharray="3"/></g><g transform="translate(-22,10) scale(1,1)"><path fill="none" stroke="#000000" d="M 832.1626748576241 355.790482243984 L 822 360 L 832.1626748576241 364.209517756016" stroke-miterlimit="10"/></g><g transform="translate(-22,10) scale(1,1)"><g><path fill="none" stroke="none"/><text fill="#000000" stroke="none" font-family="Arial" font-size="13px" font-style="normal" font-weight="normal" text-decoration="none" x="886.543212890625" y="376.5">8 : void</text></g></g><g transform="translate(-22,10) scale(1,1)"><path fill="none" stroke="#000000" d="M 809 368 L 613 368" stroke-miterlimit="10" stroke-dasharray="3"/></g><g transform="translate(-22,10) scale(1,1)"><path fill="none" stroke="#000000" d="M 623.1626748576241 363.790482243984 L 613 368 L 623.1626748576241 372.209517756016" stroke-miterlimit="10"/></g><g transform="translate(-22,10) scale(1,1)"><g><path fill="none" stroke="none"/><text fill="#000000" stroke="none" font-family="Arial" font-size="13px" font-style="normal" font-weight="normal" text-decoration="none" x="688.543212890625" y="384.5">9 : void</text></g></g><g transform="translate(-22,10) scale(1,1)"><path fill="none" stroke="#000000" d="M 613 416 L 809 416" stroke-miterlimit="10"/></g><g transform="translate(-22,10) scale(1,1)"><path fill="#000000" stroke="none" d="M 798.8373251423759 420.209517756016 L 809 416 L 798.8373251423758 411.790482243984"/></g><g transform="translate(-22,10) scale(1,1)"><path fill="none" stroke="#000000" d="M 798.8373251423759 420.209517756016 L 809 416 L 798.8373251423758 411.790482243984 L 798.8373251423759 420.209517756016" stroke-miterlimit="10"/></g><g transform="translate(-22,10) scale(1,1)"><g><path fill="none" stroke="none"/><text fill="#000000" stroke="none" font-family="Arial" font-size="13px" font-style="normal" font-weight="normal" text-decoration="none" x="640.5" y="412.5">10 : publishLocalService</text></g></g><g transform="translate(-22,10) scale(1,1)"><rect fill="#ffffff" stroke="none" x="809" y="416" width="13" height="64"/></g><g transform="translate(-22,10) scale(1,1)"><path fill="none" stroke="#000000" d="M 809 416 L 822 416 L 822 480 L 809 480 L 809 416 Z Z" stroke-miterlimit="10"/></g><g transform="translate(-22,10) scale(1,1)"><path fill="none" stroke="#000000" d="M 822 428 L 1175 428" stroke-miterlimit="10"/></g><g transform="translate(-22,10) scale(1,1)"><path fill="#000000" stroke="none" d="M 1164.837325142376 432.209517756016 L 1175 428 L 1164.837325142376 423.790482243984"/></g><g transform="translate(-22,10) scale(1,1)"><path fill="none" stroke="#000000" d="M 1164.837325142376 432.209517756016 L 1175 428 L 1164.837325142376 423.790482243984 L 1164.837325142376 432.209517756016" stroke-miterlimit="10"/></g><g transform="translate(-22,10) scale(1,1)"><g><path fill="none" stroke="none"/><text fill="#000000" stroke="none" font-family="Arial" font-size="13px" font-style="normal" font-weight="normal" text-decoration="none" x="953.5" y="424.5">11 : addService</text></g></g><g transform="translate(-22,10) scale(1,1)"><rect fill="#ffffff" stroke="none" x="1175" y="428" width="13" height="44"/></g><g transform="translate(-22,10) scale(1,1)"><path fill="none" stroke="#000000" d="M 1175 428 L 1188 428 L 1188 472 L 1175 472 L 1175 428 Z Z" stroke-miterlimit="10"/></g><g transform="translate(-22,10) scale(1,1)"><path fill="none" stroke="#000000" d="M 1175 464 L 822 464" stroke-miterlimit="10" stroke-dasharray="3"/></g><g transform="translate(-22,10) scale(1,1)"><path fill="none" stroke="#000000" d="M 832.1626748576241 459.790482243984 L 822 464 L 832.1626748576241 468.209517756016" stroke-miterlimit="10"/></g><g transform="translate(-22,10) scale(1,1)"><g><path fill="none" stroke="none"/><text fill="#000000" stroke="none" font-family="Arial" font-size="13px" font-style="normal" font-weight="normal" text-decoration="none" x="972.5" y="480.5">12 : void</text></g></g><g transform="translate(-22,10) scale(1,1)"><path fill="none" stroke="#000000" d="M 809 472 L 613 472" stroke-miterlimit="10" stroke-dasharray="3"/></g><g transform="translate(-22,10) scale(1,1)"><path fill="none" stroke="#000000" d="M 623.1626748576241 467.790482243984 L 613 472 L 623.1626748576241 476.209517756016" stroke-miterlimit="10"/></g><g transform="translate(-22,10) scale(1,1)"><g><path fill="none" stroke="none"/><text fill="#000000" stroke="none" font-family="Arial" font-size="13px" font-style="normal" font-weight="normal" text-decoration="none" x="685.5" y="488.5">13 : void</text></g></g><g transform="translate(-22,10) scale(1,1)"><path fill="none" stroke="#000000" d="M 600 512 L 377 512" stroke-miterlimit="10" stroke-dasharray="3"/></g><g transform="translate(-22,10) scale(1,1)"><path fill="none" stroke="#000000" d="M 387.16267485762415 507.790482243984 L 377 512 L 387.16267485762415 516.209517756016" stroke-miterlimit="10"/></g><g transform="translate(-22,10) scale(1,1)"><g><path fill="none" stroke="none"/><text fill="#000000" stroke="none" font-family="Arial" font-size="13px" font-style="normal" font-weight="normal" text-decoration="none" x="462.5" y="528.5">14 : void</text></g></g><g transform="translate(-22,10) scale(1,1)"><path fill="none" stroke="#000000" d="M 364 528 L 169 528" stroke-miterlimit="10" stroke-dasharray="3"/></g><g transform="translate(-22,10) scale(1,1)"><path fill="none" stroke="#000000" d="M 179.16267485762415 523.790482243984 L 169 528 L 179.16267485762415 532.209517756016" stroke-miterlimit="10"/></g><g transform="translate(-22,10) scale(1,1)"><g><path fill="none" stroke="none"/><text fill="#000000" stroke="none" font-family="Arial" font-size="13px" font-style="normal" font-weight="normal" text-decoration="none" x="240.5" y="544.5">15 : void</text></g></g></g></svg>